<svg width="0" height="0" fill="none" style="visibility: hidden; position: absolute;" aria-hidden="true">
    <symbol id="add" width="24" height="24" viewBox="0 0 24 24" fill="none" xmlns="http://www.w3.org/2000/svg">
        <path d="M11 7V11H7V13H11V17H13V13H17V11H13V7H11Z" fill="#212121"/>
        <path fill-rule="evenodd" clip-rule="evenodd" d="M22 12C22 17.5228 17.5228 22 12 22C6.47715 22 2 17.5228 2 12C2 6.47715 6.47715 2 12 2C17.5228 2 22 6.47715 22 12ZM20 12C20 16.4183 16.4183 20 12 20C7.58172 20 4 16.4183 4 12C4 7.58172 7.58172 4 12 4C16.4183 4 20 7.58172 20 12Z" fill="#212121"/>
    </symbol>
    <symbol id="alert" width="24" height="24" viewBox="0 0 24 24" fill="none" xmlns="http://www.w3.org/2000/svg">
        <path d="M11 13V7H13V13H11Z" fill="#212121"/>
        <path d="M13 17V15H11V17H13Z" fill="#212121"/>
        <path fill-rule="evenodd" clip-rule="evenodd" d="M12 22C17.5228 22 22 17.5228 22 12C22 6.47715 17.5228 2 12 2C6.47715 2 2 6.47715 2 12C2 17.5228 6.47715 22 12 22ZM12 20C16.4183 20 20 16.4183 20 12C20 7.58172 16.4183 4 12 4C7.58172 4 4 7.58172 4 12C4 16.4183 7.58172 20 12 20Z" fill="#212121"/>
    </symbol>
    <symbol id="apple" width="24" height="24" viewBox="0 0 24 24" fill="none" xmlns="http://www.w3.org/2000/svg">
        <path fill-rule="evenodd" clip-rule="evenodd" d="M18.0005 12.1928C18.0005 10.3617 19.047 9.20315 19.7692 8.61927C20.0925 8.35788 20.3509 8.21167 20.4212 8.17186C20.4286 8.16767 20.4339 8.16466 20.437 8.16282C19.9959 7.51749 19.4608 7.06913 18.9177 6.75868C17.8926 6.17269 16.839 6.07805 16.3347 6.07756C16.3243 6.07756 16.314 6.07759 16.3036 6.07766C15.2563 6.08404 14.2816 6.4115 13.4859 6.67882C12.9334 6.86443 12.4672 7.02105 12.123 7.02105C12.0393 7.02105 11.9519 7.01214 11.8612 6.99603C11.5416 6.93932 11.1795 6.79351 10.7839 6.63426C10.5573 6.54302 10.3198 6.44737 10.073 6.36153C9.5841 6.1915 9.05897 6.05998 8.51097 6.07756C6.62552 6.1125 4.89898 7.17223 3.9319 8.73332C3.24672 9.85154 2.97679 11.168 3.00155 12.5073C3.03829 15.0347 4.07884 17.6669 5.30307 19.3442C6.24539 20.6258 7.3107 22 8.81683 22C9.45112 22 9.8988 21.8122 10.3763 21.6119C10.9221 21.383 11.5068 21.1378 12.4536 21.1378C13.3097 21.1378 13.8603 21.369 14.3913 21.592C14.8856 21.7996 15.3629 22 16.0536 22C17.5597 22 18.5515 20.6957 19.4452 19.402C19.7444 19.0028 19.991 18.6085 20.1927 18.2436C20.6145 17.4805 20.8398 16.846 20.9399 16.564C20.9721 16.4735 20.9913 16.4193 21 16.4089C20.9736 16.4089 20.1266 16.0872 19.3389 15.2951C18.6738 14.6262 18.051 13.622 18.0005 12.1928ZM18.4785 17.2098C18.3791 17.1289 18.2785 17.0427 18.1777 16.9511C17.1549 16.0209 16.0804 14.4905 16.0018 12.2634L16.0005 12.2281V12.1928C16.0005 10.4793 16.6411 9.16506 17.3531 8.24424C16.9504 8.1128 16.5765 8.07789 16.3337 8.07756C15.7712 8.07774 15.1795 8.22789 14.495 8.45091C14.401 8.48154 14.2912 8.51836 14.1749 8.55738C13.9381 8.63679 13.6742 8.72529 13.4609 8.78928C13.144 8.88433 12.6473 9.02105 12.123 9.02105C11.5639 9.02105 11.0646 8.87051 10.738 8.75792C10.4939 8.67378 10.2145 8.56126 9.98978 8.47073C9.91786 8.44176 9.85154 8.41505 9.79375 8.39224C9.19959 8.15769 8.85189 8.06765 8.57509 8.07653L8.56156 8.07696L8.54803 8.07721C7.38853 8.0987 6.26902 8.76153 5.63468 9.78241C5.19702 10.4988 4.98169 11.4143 5.00121 12.4703L5.00136 12.4782C5.03139 14.5447 5.90881 16.7804 6.91662 18.1625C7.39934 18.8189 7.78305 19.3109 8.16985 19.6513C8.53314 19.9711 8.72415 20 8.81683 20C9.03201 20 9.13172 19.9636 9.71001 19.7227C10.3251 19.4665 11.1798 19.1378 12.4536 19.1378C13.6885 19.1378 14.5303 19.4817 15.1093 19.7244C15.6437 19.9483 15.7878 20 16.0536 20C16.1667 20 16.3378 19.9696 16.6492 19.6923C16.9968 19.3828 17.3478 18.9193 17.7996 18.2653L17.8217 18.2333L17.845 18.2022C18.1006 17.8613 18.3095 17.5223 18.4785 17.2098ZM11.967 4.94988C11.9333 5.23276 11.9401 5.52146 12.0008 5.81016C12.0414 5.81494 12.0821 5.81873 12.123 5.82154C12.7058 5.86175 13.3068 5.70429 13.8518 5.42098C13.8856 5.40343 13.9191 5.38539 13.9525 5.36689C14.445 5.0934 14.8867 4.7181 15.2207 4.29616C15.2686 4.24585 15.3153 4.19446 15.3607 4.14205C15.6454 3.81377 15.8812 3.44534 16.0598 3.05098C16.2794 2.56621 16.4128 2.04225 16.4449 1.50543C16.4549 1.33794 16.455 1.16919 16.4449 1C16.3162 1 16.1853 1.008 16.053 1.02354C15.5138 1.08686 14.9521 1.27529 14.4316 1.55692C13.9374 1.82432 13.4803 2.17574 13.1148 2.58389C12.825 2.92578 12.5259 3.35274 12.3029 3.82747C12.2698 3.89794 12.2384 3.96947 12.2089 4.04193C12.0908 4.33225 12.0042 4.63752 11.967 4.94988Z" fill="#212121"/>
    </symbol>
    <symbol id="arrow-down" width="24" height="24" viewBox="0 0 24 24" fill="none" xmlns="http://www.w3.org/2000/svg">
        <path fill-rule="evenodd" clip-rule="evenodd" d="M13 18.5858L18.7929 12.7929L20.2071 14.2071L12.7071 21.7071C12.3166 22.0976 11.6834 22.0976 11.2929 21.7071L3.79289 14.2071L5.20711 12.7929L11 18.5858V2H13V18.5858Z" fill="#212121"/>
    </symbol>
    <symbol id="arrow-left-down" width="24" height="24" viewBox="0 0 24 24" fill="none" xmlns="http://www.w3.org/2000/svg">
        <path fill-rule="evenodd" clip-rule="evenodd" d="M7.63604 17.364H15.8284V19.364L5.22182 19.364C4.66954 19.364 4.22182 18.9163 4.22182 18.364L4.22183 7.7574L6.22182 7.7574V15.9498L17.9497 4.22186L19.364 5.63608L7.63604 17.364Z" fill="#212121"/>
    </symbol>
    <symbol id="arrow-left-up" width="24" height="24" viewBox="0 0 24 24" fill="none" xmlns="http://www.w3.org/2000/svg">
        <path fill-rule="evenodd" clip-rule="evenodd" d="M6.22182 7.63605V15.8284H4.22183L4.22182 5.22183C4.22182 4.66955 4.66954 4.22183 5.22182 4.22183L15.8284 4.22183L15.8284 6.22183H7.63604L19.364 17.9498L17.9497 19.364L6.22182 7.63605Z" fill="#212121"/>
    </symbol>
    <symbol id="arrow-left" width="24" height="24" viewBox="0 0 24 24" fill="none" xmlns="http://www.w3.org/2000/svg">
        <path fill-rule="evenodd" clip-rule="evenodd" d="M5.41421 13L11.2071 18.7929L9.79289 20.2071L2.29289 12.7071C1.90237 12.3166 1.90237 11.6834 2.29289 11.2929L9.79289 3.79291L11.2071 5.20712L5.41421 11H22V13H5.41421Z" fill="#212121"/>
    </symbol>
    <symbol id="arrow-right-down" width="24" height="24" viewBox="0 0 24 24" fill="none" xmlns="http://www.w3.org/2000/svg">
        <path fill-rule="evenodd" clip-rule="evenodd" d="M17.364 15.9498V7.75737H19.364L19.364 18.364C19.364 18.9163 18.9162 19.364 18.364 19.364L7.75736 19.364L7.75736 17.364H15.9497L4.22182 5.63605L5.63604 4.22183L17.364 15.9498Z" fill="#212121"/>
    </symbol>
    <symbol id="arrow-right-up" width="24" height="24" viewBox="0 0 24 24" fill="none" xmlns="http://www.w3.org/2000/svg">
        <path fill-rule="evenodd" clip-rule="evenodd" d="M15.9497 6.22183H7.75735V4.22183L18.364 4.22183C18.9162 4.22183 19.364 4.66955 19.364 5.22183L19.364 15.8284L17.364 15.8284V7.63605L5.63603 19.364L4.22182 17.9498L15.9497 6.22183Z" fill="#212121"/>
    </symbol>
    <symbol id="arrow-right" width="24" height="24" viewBox="0 0 24 24" fill="none" xmlns="http://www.w3.org/2000/svg">
        <path fill-rule="evenodd" clip-rule="evenodd" d="M18.5858 11L12.7929 5.20712L14.2071 3.79291L21.7071 11.2929C22.0976 11.6834 22.0976 12.3166 21.7071 12.7071L14.2071 20.2071L12.7929 18.7929L18.5858 13H2V11H18.5858Z" fill="#212121"/>
    </symbol>
    <symbol id="arrow-up" width="24" height="24" viewBox="0 0 24 24" fill="none" xmlns="http://www.w3.org/2000/svg">
        <path fill-rule="evenodd" clip-rule="evenodd" d="M11 5.41421L5.20712 11.2071L3.79291 9.79289L11.2929 2.29289C11.6834 1.90237 12.3166 1.90237 12.7071 2.29289L20.2071 9.79289L18.7929 11.2071L13 5.41421V22H11V5.41421Z" fill="#212121"/>
    </symbol>
    <symbol id="bag" width="24" height="24" viewBox="0 0 24 24" fill="none" xmlns="http://www.w3.org/2000/svg">
        <path fill-rule="evenodd" clip-rule="evenodd" d="M12 2C9.79086 2 8 3.79086 8 6V7H7C5.34315 7 4 8.34315 4 10V19C4 20.6569 5.34315 22 7 22H17C18.6569 22 20 20.6569 20 19V10C20 8.34315 18.6569 7 17 7H16V6C16 3.79086 14.2091 2 12 2ZM14 9V11H16V9H17C17.5523 9 18 9.44772 18 10V19C18 19.5523 17.5523 20 17 20H7C6.44772 20 6 19.5523 6 19V10C6 9.44772 6.44772 9 7 9H8V11H10V9H14ZM14 7V6C14 4.89543 13.1046 4 12 4C10.8954 4 10 4.89543 10 6V7H14Z" fill="#212121"/>
    </symbol>
    <symbol id="bell" width="24" height="24" viewBox="0 0 24 24" fill="none" xmlns="http://www.w3.org/2000/svg">
        <path fill-rule="evenodd" clip-rule="evenodd" d="M4.99997 9C4.99997 5.13401 8.13398 2 12 2C15.866 2 19 5.13401 19 9V10.3115C19 10.7523 19.1751 11.1751 19.4868 11.4869L20.2431 12.2431C20.716 12.716 20.9212 13.3939 20.7901 14.0496L20.3215 16.3922C20.1346 17.3271 19.3137 18 18.3604 18H16C16 20.2091 14.2091 22 12 22C9.79086 22 8 20.2091 8 18H5.63958C4.68622 18 3.86539 17.3271 3.67842 16.3922L3.20989 14.0496C3.07875 13.3939 3.28399 12.716 3.75684 12.2431L4.5131 11.4869C4.82484 11.1751 4.99997 10.7523 4.99997 10.3115V9ZM6.99997 10.3115V9C6.99997 6.23858 9.23855 4 12 4C14.7614 4 17 6.23858 17 9V10.3115C17 11.2828 17.3858 12.2143 18.0726 12.9011L18.8289 13.6573L18.3604 16L5.63958 16L5.17105 13.6573L5.92732 12.9011C6.61413 12.2143 6.99997 11.2828 6.99997 10.3115ZM10 18C10 19.1046 10.8954 20 12 20C13.1046 20 14 19.1046 14 18H10Z" fill="#212121"/>
    </symbol>
    <symbol id="book" width="18" height="18" viewBox="0 0 18 18" fill="none" xmlns="http://www.w3.org/2000/svg">
        <g clip-path="url(#clip0_280_11183__book)">
            <path d="M2.84705 2.92499C2.84705 1.80662 3.70034 0.899994 4.75293 0.899994H15.0447V17.1H4.75293C3.70034 17.1 2.84705 16.1934 2.84705 15.075V2.92499Z" stroke="black" stroke-width="2" stroke-linecap="round" stroke-linejoin="round"/>
            <path d="M2.84705 15.075C2.84705 13.9566 3.70033 13.05 4.75291 13.05H15.0447" stroke="black" stroke-width="2" stroke-linecap="round" stroke-linejoin="round"/>
        </g>
        <defs>
            <clipPath id="clip0_280_11183__book">
                <rect width="14.4" height="18" fill="white" transform="translate(2)"/>
            </clipPath>
        </defs>
    </symbol>
    <symbol id="burger" width="24" height="24" viewBox="0 0 24 24" fill="none" xmlns="http://www.w3.org/2000/svg">
        <path d="M21 7H3V5H21V7Z" fill="#212121"/>
        <path d="M21 13H3V11H21V13Z" fill="#212121"/>
        <path d="M3 19H21V17H3V19Z" fill="#212121"/>
    </symbol>
    <symbol id="calendar" width="24" height="24" viewBox="0 0 24 24" fill="none" xmlns="http://www.w3.org/2000/svg">
        <path d="M5 22C4.45 22 3.97917 21.8042 3.5875 21.4125C3.19583 21.0208 3 20.55 3 20V6C3 5.45 3.19583 4.97917 3.5875 4.5875C3.97917 4.19583 4.45 4 5 4H6V2H8V4H16V2H18V4H19C19.55 4 20.0208 4.19583 20.4125 4.5875C20.8042 4.97917 21 5.45 21 6V11H19V10H5V20H12V22H5ZM5 8H19V6H5V8ZM14 22V18.925L19.525 13.425C19.675 13.275 19.8417 13.1667 20.025 13.1C20.2083 13.0333 20.3917 13 20.575 13C20.775 13 20.9667 13.0375 21.15 13.1125C21.3333 13.1875 21.5 13.3 21.65 13.45L22.575 14.375C22.7083 14.525 22.8125 14.6917 22.8875 14.875C22.9625 15.0583 23 15.2417 23 15.425C23 15.6083 22.9667 15.7958 22.9 15.9875C22.8333 16.1792 22.725 16.35 22.575 16.5L17.075 22H14ZM15.5 20.5H16.45L19.475 17.45L19.025 16.975L18.55 16.525L15.5 19.55V20.5ZM19.025 16.975L18.55 16.525L19.475 17.45L19.025 16.975Z" fill="black"/>
    </symbol>
    <symbol id="calendar2" width="24" height="24" viewBox="0 0 24 24" fill="none" xmlns="http://www.w3.org/2000/svg">
        <path d="M16 17C16.5523 17 17 16.5523 17 16C17 15.4477 16.5523 15 16 15C15.4477 15 15 15.4477 15 16C15 16.5523 15.4477 17 16 17Z" fill="#212121"/>
        <path fill-rule="evenodd" clip-rule="evenodd" d="M7 3H9V5H15V3H17L17 5C19.2091 5 21 6.79086 21 9V17C21 19.2091 19.2091 21 17 21H7C4.79086 21 3 19.2091 3 17V9C3 6.79086 4.79086 5 7 5V3ZM15 7V9H17L17 7C18.1046 7 19 7.89543 19 9V11H5V9C5 7.89543 5.89543 7 7 7V9H9V7H15ZM5 13H19V17C19 18.1046 18.1046 19 17 19H7C5.89543 19 5 18.1046 5 17V13Z" fill="#212121"/>
    </symbol>
    <symbol id="camera" width="24" height="24" viewBox="0 0 24 24" fill="none" xmlns="http://www.w3.org/2000/svg">
        <path fill-rule="evenodd" clip-rule="evenodd" d="M12 17C14.2091 17 16 15.2091 16 13C16 10.7909 14.2091 9 12 9C9.79086 9 8 10.7909 8 13C8 15.2091 9.79086 17 12 17ZM12 15C13.1046 15 14 14.1046 14 13C14 11.8954 13.1046 11 12 11C10.8954 11 10 11.8954 10 13C10 14.1046 10.8954 15 12 15Z" fill="#212121"/>
        <path d="M17 10C17.5523 10 18 9.55228 18 9C18 8.44772 17.5523 8 17 8C16.4477 8 16 8.44772 16 9C16 9.55228 16.4477 10 17 10Z" fill="#212121"/>
        <path fill-rule="evenodd" clip-rule="evenodd" d="M9.10899 3.54601C9 3.75992 9 4.03995 9 4.6V5H9.4C7.15979 5 6.03969 5 5.18404 5.43597C4.43139 5.81947 3.81947 6.43139 3.43597 7.18404C3 8.03969 3 9.15979 3 11.4V14.6C3 16.8402 3 17.9603 3.43597 18.816C3.81947 19.5686 4.43139 20.1805 5.18404 20.564C6.03969 21 7.15979 21 9.4 21H14.6C16.8402 21 17.9603 21 18.816 20.564C19.5686 20.1805 20.1805 19.5686 20.564 18.816C21 17.9603 21 16.8402 21 14.6V11.4C21 9.15979 21 8.03969 20.564 7.18404C20.1805 6.43139 19.5686 5.81947 18.816 5.43597C17.9603 5 16.8402 5 14.6 5H15V4.6C15 4.03995 15 3.75992 14.891 3.54601C14.7951 3.35785 14.6422 3.20487 14.454 3.10899C14.2401 3 13.9601 3 13.4 3H10.6C10.0399 3 9.75992 3 9.54601 3.10899C9.35785 3.20487 9.20487 3.35785 9.10899 3.54601ZM9.4 7H14.6C15.7531 7 16.4977 7.00156 17.0643 7.04785C17.6077 7.09225 17.8091 7.1676 17.908 7.21799C18.2843 7.40973 18.5903 7.71569 18.782 8.09202C18.8324 8.19091 18.9078 8.39235 18.9521 8.93567C18.9984 9.50235 19 10.2469 19 11.4V14.6C19 15.7531 18.9984 16.4977 18.9521 17.0643C18.9078 17.6077 18.8324 17.8091 18.782 17.908C18.5903 18.2843 18.2843 18.5903 17.908 18.782C17.8091 18.8324 17.6077 18.9078 17.0643 18.9521C16.4977 18.9984 15.7531 19 14.6 19H9.4C8.24689 19 7.50235 18.9984 6.93567 18.9521C6.39235 18.9078 6.19091 18.8324 6.09202 18.782C5.71569 18.5903 5.40973 18.2843 5.21799 17.908C5.1676 17.8091 5.09225 17.6077 5.04785 17.0643C5.00156 16.4977 5 15.7531 5 14.6V11.4C5 10.2469 5.00156 9.50235 5.04785 8.93567C5.09225 8.39235 5.1676 8.19091 5.21799 8.09202C5.40973 7.71569 5.71569 7.40973 6.09202 7.21799C6.19091 7.1676 6.39235 7.09225 6.93567 7.04785C7.50235 7.00156 8.24689 7 9.4 7Z" fill="#212121"/>
    </symbol>
    <symbol id="caps" width="24" height="24" viewBox="0 0 24 24" fill="none" xmlns="http://www.w3.org/2000/svg">
        <path fill-rule="evenodd" clip-rule="evenodd" d="M11.2929 3.29289C11.6834 2.90237 12.3166 2.90237 12.7071 3.29289L19.7071 10.2929C19.9931 10.5789 20.0787 11.009 19.9239 11.3827C19.7691 11.7564 19.4045 12 19 12H17V21C17 21.5523 16.5523 22 16 22H8C7.44772 22 7 21.5523 7 21V12H5C4.59554 12 4.2309 11.7564 4.07612 11.3827C3.92134 11.009 4.0069 10.5789 4.29289 10.2929L11.2929 3.29289ZM7.41421 10H8C8.55229 10 9 10.4477 9 11V20H15V11C15 10.4477 15.4477 10 16 10H16.5858L12 5.41421L7.41421 10Z" fill="#212121"/>
    </symbol>
    <symbol id="car" width="24" height="24" viewBox="0 0 24 24" fill="none" xmlns="http://www.w3.org/2000/svg">
        <path fill-rule="evenodd" clip-rule="evenodd" d="M6.80843 3C5.86536 3 5.05043 3.6588 4.85283 4.58094L3.63644 10.2575C3.29513 10.4497 3.01114 10.7417 2.82918 11.1056L2.21115 12.3416C2.07229 12.6194 2 12.9256 2 13.2361V19C2 20.1046 2.89543 21 4 21H6C7.10457 21 8 20.1046 8 19H16C16 20.1046 16.8954 21 18 21H20C21.1046 21 22 20.1046 22 19V13.2361C22 12.9256 21.9277 12.6194 21.7889 12.3416L21.1708 11.1056C20.9889 10.7417 20.7049 10.4498 20.3636 10.2575L19.1472 4.58094C18.9496 3.6588 18.1347 3 17.1916 3H6.80843ZM20 13.5H17C16.4477 13.5 16 13.9477 16 14.5C16 15.0523 16.4477 15.5 17 15.5H20V19H18V17H6V19H4V15.5H7C7.55228 15.5 8 15.0523 8 14.5C8 13.9477 7.55228 13.5 7 13.5H4V13.2361L4.61803 12H19.382L20 13.2361V13.5ZM18.263 10L17.1916 5L6.80843 5L5.73701 10H18.263Z" fill="#212121"/>
    </symbol>
    <symbol id="card" width="24" height="24" viewBox="0 0 24 24" fill="none" xmlns="http://www.w3.org/2000/svg">
        <path fill-rule="evenodd" clip-rule="evenodd" d="M17.2 6H6.8C5.92692 6 5.39239 6.00156 4.99247 6.03423C4.80617 6.04945 4.69345 6.06857 4.625 6.08469C4.59244 6.09236 4.57241 6.09879 4.56158 6.10265C4.55118 6.10636 4.54601 6.10899 4.54601 6.10899C4.35785 6.20487 4.20487 6.35785 4.10899 6.54601C4.10899 6.54601 4.10636 6.55118 4.10265 6.56158C4.09879 6.57241 4.09236 6.59244 4.08469 6.625C4.06857 6.69345 4.04945 6.80617 4.03423 6.99247C4.01297 7.25263 4.00489 7.56976 4.00183 8H19.9982C19.9951 7.56976 19.987 7.25263 19.9658 6.99247C19.9505 6.80617 19.9314 6.69345 19.9153 6.625C19.9076 6.59244 19.9012 6.57241 19.8973 6.56158C19.8936 6.55118 19.891 6.54601 19.891 6.54601C19.7951 6.35785 19.6422 6.20487 19.454 6.10899C19.454 6.10899 19.4488 6.10636 19.4384 6.10265C19.4276 6.09879 19.4076 6.09236 19.375 6.08469C19.3065 6.06857 19.1938 6.04945 19.0075 6.03423C18.6076 6.00156 18.0731 6 17.2 6ZM2 15.2C2 16.8802 2 17.7202 2.32698 18.362C2.6146 18.9265 3.07354 19.3854 3.63803 19.673C4.27976 20 5.11984 20 6.8 20H17.2C18.8802 20 19.7202 20 20.362 19.673C20.9265 19.3854 21.3854 18.9265 21.673 18.362C22 17.7202 22 16.8802 22 15.2V8H21.9983C21.9902 6.83507 21.9434 6.16873 21.673 5.63803C21.3854 5.07354 20.9265 4.6146 20.362 4.32698C19.7202 4 18.8802 4 17.2 4H6.8C5.11984 4 4.27976 4 3.63803 4.32698C3.07354 4.6146 2.6146 5.07354 2.32698 5.63803C2.05658 6.16873 2.00979 6.83507 2.00169 8H2V15.2ZM20 15.2V10H4V15.2C4 16.0731 4.00156 16.6076 4.03423 17.0075C4.04945 17.1938 4.06857 17.3065 4.08469 17.375C4.09236 17.4076 4.09879 17.4276 4.10265 17.4384C4.10636 17.4488 4.10899 17.454 4.10899 17.454C4.20487 17.6422 4.35785 17.7951 4.54601 17.891C4.54601 17.891 4.55118 17.8936 4.56158 17.8973C4.57241 17.9012 4.59244 17.9076 4.625 17.9153C4.69345 17.9314 4.80617 17.9505 4.99247 17.9658C5.39239 17.9984 5.92692 18 6.8 18H17.2C18.0731 18 18.6076 17.9984 19.0075 17.9658C19.1938 17.9505 19.3065 17.9314 19.375 17.9153C19.4076 17.9076 19.4276 17.9012 19.4384 17.8973C19.4488 17.8936 19.454 17.891 19.454 17.891C19.6422 17.7951 19.7951 17.6422 19.891 17.454C19.891 17.454 19.8936 17.4488 19.8973 17.4384C19.9012 17.4276 19.9076 17.4076 19.9153 17.375C19.9314 17.3065 19.9505 17.1938 19.9658 17.0075C19.9984 16.6076 20 16.0731 20 15.2ZM10 12H6V14H10V12Z" fill="#212121"/>
    </symbol>
    <symbol id="cart" width="24" height="24" viewBox="0 0 24 24" fill="none" xmlns="http://www.w3.org/2000/svg">
        <path fill-rule="evenodd" clip-rule="evenodd" d="M0 2H2.5C2.81476 2 3.11115 2.14819 3.3 2.4L4.5 4H19.5604C21.4535 4 22.8734 5.73198 22.5021 7.58835L21.4629 12.7845C21.089 14.6542 19.4473 16 17.5406 16H6C5.44772 16 5 16.4477 5 17C5 17.5523 5.44772 18 6 18H21V20H19C19 21.1046 18.1046 22 17 22C15.8954 22 15 21.1046 15 20H11C11 21.1046 10.1046 22 9 22C7.89543 22 7 21.1046 7 20H6C4.34315 20 3 18.6569 3 17C3 15.4575 4.16407 14.187 5.66163 14.0189L3.09328 5.45771L2 4H0V2ZM5.34403 6L7.74403 14H17.5406C18.4939 14 19.3148 13.3271 19.5017 12.3922L20.541 7.19612C20.6647 6.57732 20.1914 6 19.5604 6H5.34403Z" fill="#212121"/>
    </symbol>
    <symbol id="chat" width="24" height="24" viewBox="0 0 24 24" fill="none" xmlns="http://www.w3.org/2000/svg">
        <path fill-rule="evenodd" clip-rule="evenodd" d="M3 6C3 4.34314 4.34315 3 6 3H18C19.6569 3 21 4.34315 21 6V16.3158C21 17.9726 19.6569 19.3158 18 19.3158H12.3351L9.04696 21.7981C8.74421 22.0267 8.3382 22.0642 7.99864 21.8951C7.65908 21.726 7.44444 21.3793 7.44444 21V19.3158H6C4.34315 19.3158 3 17.9726 3 16.3158V6ZM6 5C5.44771 5 5 5.44772 5 6V16.3158C5 16.8681 5.44772 17.3158 6 17.3158H8.44444C8.99673 17.3158 9.44444 17.7635 9.44444 18.3158V18.9921L11.3975 17.5177C11.571 17.3867 11.7826 17.3158 12 17.3158H18C18.5523 17.3158 19 16.8681 19 16.3158V6C19 5.44772 18.5523 5 18 5H6Z" fill="#212121"/>
    </symbol>
    <symbol id="checkmark" width="24" height="24" viewBox="0 0 24 24" fill="none" xmlns="http://www.w3.org/2000/svg">
        <path fill-rule="evenodd" clip-rule="evenodd" d="M20.2071 7.20712L9.70711 17.7071C9.31658 18.0976 8.68342 18.0976 8.29289 17.7071L3.79289 13.2071L5.20711 11.7929L9 15.5858L18.7929 5.79291L20.2071 7.20712Z" fill="#212121"/>
    </symbol>
    <symbol id="chevron-down" width="24" height="24" viewBox="0 0 24 24" fill="none" xmlns="http://www.w3.org/2000/svg">
        <path fill-rule="evenodd" clip-rule="evenodd" d="M12 14.5858L5.20711 7.79291L3.79289 9.20712L11.2929 16.7071C11.6834 17.0976 12.3166 17.0976 12.7071 16.7071L20.2071 9.20712L18.7929 7.79291L12 14.5858Z" fill="#212121"/>
    </symbol>
    <symbol id="chevron-left" width="24" height="24" viewBox="0 0 24 24" fill="none" xmlns="http://www.w3.org/2000/svg">
        <path fill-rule="evenodd" clip-rule="evenodd" d="M9.41421 12L16.2071 5.20712L14.7929 3.79291L7.29289 11.2929C6.90237 11.6834 6.90237 12.3166 7.29289 12.7071L14.7929 20.2071L16.2071 18.7929L9.41421 12Z" fill="#212121"/>
    </symbol>
    <symbol id="chevron-right" width="24" height="24" viewBox="0 0 24 24" fill="none" xmlns="http://www.w3.org/2000/svg">
        <path fill-rule="evenodd" clip-rule="evenodd" d="M14.5858 12L7.79289 18.7929L9.20711 20.2071L16.7071 12.7071C17.0976 12.3166 17.0976 11.6834 16.7071 11.2929L9.20711 3.79291L7.79289 5.20712L14.5858 12Z" fill="#212121"/>
    </symbol>
    <symbol id="chevron-up" width="24" height="24" viewBox="0 0 24 24" fill="none" xmlns="http://www.w3.org/2000/svg">
        <path fill-rule="evenodd" clip-rule="evenodd" d="M12 7C12.2652 7 12.5196 7.10536 12.7071 7.29289L20.2071 14.7929L18.7929 16.2071L12 9.41421L5.20711 16.2071L3.79289 14.7929L11.2929 7.29289C11.4804 7.10536 11.7348 7 12 7Z" fill="#212121"/>
    </symbol>
    <symbol id="clear" width="24" height="24" viewBox="0 0 24 24" fill="none" xmlns="http://www.w3.org/2000/svg">
        <path d="M7.79291 9.20711L10.5858 12L7.79291 14.7929L9.20712 16.2071L12 13.4142L14.7929 16.2071L16.2071 14.7929L13.4142 12L16.2071 9.20711L14.7929 7.79289L12 10.5858L9.20712 7.79289L7.79291 9.20711Z" fill="#212121"/>
        <path fill-rule="evenodd" clip-rule="evenodd" d="M22 12C22 17.5228 17.5228 22 12 22C6.47715 22 2 17.5228 2 12C2 6.47715 6.47715 2 12 2C17.5228 2 22 6.47715 22 12ZM20 12C20 16.4183 16.4183 20 12 20C7.58172 20 4 16.4183 4 12C4 7.58172 7.58172 4 12 4C16.4183 4 20 7.58172 20 12Z" fill="#212121"/>
    </symbol>
    <symbol id="clock" width="24" height="24" viewBox="0 0 24 24" fill="none" xmlns="http://www.w3.org/2000/svg">
        <path d="M13 12V7H11V14H17V12H13Z" fill="#212121"/>
        <path fill-rule="evenodd" clip-rule="evenodd" d="M22 12C22 17.5228 17.5228 22 12 22C6.47715 22 2 17.5228 2 12C2 6.47715 6.47715 2 12 2C17.5228 2 22 6.47715 22 12ZM20 12C20 16.4183 16.4183 20 12 20C7.58172 20 4 16.4183 4 12C4 7.58172 7.58172 4 12 4C16.4183 4 20 7.58172 20 12Z" fill="#212121"/>
    </symbol>
    <symbol id="close" width="24" height="24" viewBox="0 0 24 24" fill="none" xmlns="http://www.w3.org/2000/svg">
        <path fill-rule="evenodd" clip-rule="evenodd" d="M10.5858 12L3.29291 4.70712L4.70712 3.29291L12 10.5858L19.2929 3.29291L20.7071 4.70712L13.4142 12L20.7071 19.2929L19.2929 20.7071L12 13.4142L4.70712 20.7071L3.29291 19.2929L10.5858 12Z" fill="#212121"/>
    </symbol>
    <symbol id="direction-horizontal" width="24" height="24" viewBox="0 0 24 24" fill="none" xmlns="http://www.w3.org/2000/svg">
        <path d="M8.29289 2.29291L4.29289 6.29291C3.90237 6.68343 3.90237 7.3166 4.29289 7.70712L8.29289 11.7071L9.70711 10.2929L7.41421 8.00001H19V6.00001H7.41421L9.70711 3.70712L8.29289 2.29291Z" fill="#212121"/>
        <path d="M14.2929 13.7071L16.5858 16H5V18H16.5858L14.2929 20.2929L15.7071 21.7071L19.7071 17.7071C20.0976 17.3166 20.0976 16.6834 19.7071 16.2929L15.7071 12.2929L14.2929 13.7071Z" fill="#212121"/>
    </symbol>
    <symbol id="direction-vertical" width="24" height="24" viewBox="0 0 24 24" fill="none" xmlns="http://www.w3.org/2000/svg">
        <path d="M21.7071 8.29289L17.7071 4.29289C17.3166 3.90237 16.6834 3.90237 16.2929 4.29289L12.2929 8.29289L13.7071 9.70711L16 7.41421V19H18V7.41421L20.2929 9.70711L21.7071 8.29289Z" fill="#212121"/>
        <path d="M10.2929 14.2929L8.00001 16.5858L8.00001 5L6.00001 5L6.00001 16.5858L3.70712 14.2929L2.29291 15.7071L6.29291 19.7071C6.68343 20.0976 7.3166 20.0976 7.70712 19.7071L11.7071 15.7071L10.2929 14.2929Z" fill="#212121"/>
    </symbol>
    <symbol id="erase" width="24" height="24" viewBox="0 0 24 24" fill="none" xmlns="http://www.w3.org/2000/svg">
        <path d="M9.79289 9.20711L12.5858 12L9.79289 14.7929L11.2071 16.2071L14 13.4142L16.7929 16.2071L18.2071 14.7929L15.4142 12L18.2071 9.20711L16.7929 7.79289L14 10.5858L11.2071 7.79289L9.79289 9.20711Z" fill="#212121"/>
        <path fill-rule="evenodd" clip-rule="evenodd" d="M9 3C8.73478 3 8.48043 3.10536 8.29289 3.29289L0.292893 11.2929C-0.0976311 11.6834 -0.0976311 12.3166 0.292893 12.7071L8.29289 20.7071C8.48043 20.8946 8.73478 21 9 21H18C20.2091 21 22 19.2091 22 17V7C22 4.79086 20.2091 3 18 3H9ZM2.41421 12L9.41421 5H18C19.1046 5 20 5.89543 20 7V17C20 18.1046 19.1046 19 18 19H9.41421L2.41421 12Z" fill="#212121"/>
    </symbol>
    <symbol id="eye-closed" width="24" height="24" viewBox="0 0 24 24" fill="none" xmlns="http://www.w3.org/2000/svg">
        <path fill-rule="evenodd" clip-rule="evenodd" d="M5.88708 16.6987L4.29291 18.2929L5.70712 19.7071L7.61428 17.8C8.9559 18.517 10.4513 19 12 19C17.3137 19 22 13.3137 22 12C22 11.2435 20.4459 9.03695 18.113 7.30129L19.7071 5.70712L18.2929 4.29291L16.3858 6.20006C15.0441 5.48303 13.5487 5 12 5C6.68629 5 2 10.6863 2 12C2 12.7565 3.55407 14.9631 5.88708 16.6987ZM7.31865 15.2672C6.97189 15.0212 6.63615 14.7568 6.31476 14.4791C5.50568 13.7802 4.85948 13.0581 4.4324 12.4712C4.29918 12.2881 4.19579 12.1298 4.11871 12C4.19579 11.8702 4.29918 11.7119 4.4324 11.5288C4.85948 10.9419 5.50568 10.2198 6.31476 9.52087C7.97865 8.08357 10.0268 7 12 7C12.9647 7 13.9473 7.25899 14.8941 7.69169L7.31865 15.2672ZM9.10591 16.3083C10.0528 16.741 11.0353 17 12 17C13.9732 17 16.0214 15.9164 17.6852 14.4791C18.4943 13.7802 19.1405 13.0581 19.5676 12.4712C19.7008 12.2881 19.8042 12.1298 19.8813 12C19.8042 11.8702 19.7008 11.7119 19.5676 11.5288C19.1405 10.9419 18.4943 10.2198 17.6852 9.52087C17.3639 9.24325 17.0281 8.97883 16.6814 8.73286L9.10591 16.3083ZM20.0434 11.6805C20.0434 11.6805 20.0419 11.6866 20.0368 11.6998C20.0405 11.6872 20.0434 11.6805 20.0434 11.6805ZM3.95657 11.6805C3.95657 11.6805 3.95951 11.6872 3.96326 11.6998C3.95809 11.6866 3.95657 11.6805 3.95657 11.6805ZM3.95657 12.3195C3.95657 12.3195 3.95809 12.3134 3.96326 12.3001C3.95951 12.3128 3.95657 12.3195 3.95657 12.3195ZM20.0368 12.3002C20.0419 12.3134 20.0434 12.3195 20.0434 12.3195C20.0434 12.3195 20.0405 12.3128 20.0368 12.3002Z" fill="#212121"/>
    </symbol>
    <symbol id="eye" width="24" height="24" viewBox="0 0 24 24" fill="none" xmlns="http://www.w3.org/2000/svg">
        <path fill-rule="evenodd" clip-rule="evenodd" d="M15 12C15 13.6569 13.6569 15 12 15C10.3431 15 9 13.6569 9 12C9 10.3431 10.3431 9 12 9C13.6569 9 15 10.3431 15 12ZM13 12C13 12.5523 12.5523 13 12 13C11.4477 13 11 12.5523 11 12C11 11.4477 11.4477 11 12 11C12.5523 11 13 11.4477 13 12Z" fill="#212121"/>
        <path fill-rule="evenodd" clip-rule="evenodd" d="M22 12C22 13.3137 17.3137 19 12 19C6.68629 19 2 13.3137 2 12C2 10.6863 6.68629 5 12 5C17.3137 5 22 10.6863 22 12ZM20.0434 11.6805C20.0434 11.6805 20.0419 11.6866 20.0368 11.6998C20.0405 11.6872 20.0434 11.6805 20.0434 11.6805ZM19.5676 11.5288C19.7008 11.7119 19.8042 11.8702 19.8813 12C19.8042 12.1298 19.7008 12.2881 19.5676 12.4712C19.1405 13.0581 18.4943 13.7802 17.6852 14.4791C16.0214 15.9164 13.9732 17 12 17C10.0268 17 7.97865 15.9164 6.31476 14.4791C5.50568 13.7802 4.85948 13.0581 4.4324 12.4712C4.29918 12.2881 4.19579 12.1298 4.11871 12C4.19579 11.8702 4.29918 11.7119 4.4324 11.5288C4.85948 10.9419 5.50568 10.2198 6.31476 9.52087C7.97865 8.08357 10.0268 7 12 7C13.9732 7 16.0214 8.08357 17.6852 9.52087C18.4943 10.2198 19.1405 10.9419 19.5676 11.5288ZM3.95657 11.6805C3.95657 11.6805 3.95951 11.6872 3.96326 11.6998C3.95809 11.6866 3.95657 11.6805 3.95657 11.6805ZM3.95657 12.3195C3.95657 12.3195 3.95809 12.3134 3.96326 12.3001C3.95951 12.3128 3.95657 12.3195 3.95657 12.3195ZM20.0368 12.3002C20.0419 12.3134 20.0434 12.3195 20.0434 12.3195C20.0434 12.3195 20.0405 12.3128 20.0368 12.3002Z" fill="#212121"/>
    </symbol>
    <symbol id="filter" width="24" height="24" viewBox="0 0 24 24" fill="none" xmlns="http://www.w3.org/2000/svg">
        <path fill-rule="evenodd" clip-rule="evenodd" d="M7 11C8.86384 11 10.4299 9.72523 10.874 8H21V6H10.874C10.4299 4.27477 8.86384 3 7 3C4.79086 3 3 4.79086 3 7C3 9.20914 4.79086 11 7 11ZM7 9C8.10457 9 9 8.10457 9 7C9 5.89543 8.10457 5 7 5C5.89543 5 5 5.89543 5 7C5 8.10457 5.89543 9 7 9Z" fill="#212121"/>
        <path fill-rule="evenodd" clip-rule="evenodd" d="M13.126 16C13.5701 14.2748 15.1362 13 17 13C19.2091 13 21 14.7909 21 17C21 19.2091 19.2091 21 17 21C15.1362 21 13.5701 19.7252 13.126 18H3V16H13.126ZM19 17C19 18.1046 18.1046 19 17 19C15.8954 19 15 18.1046 15 17C15 15.8954 15.8954 15 17 15C18.1046 15 19 15.8954 19 17Z" fill="#212121"/>
    </symbol>
    <symbol id="heart-filled" width="24" height="24" viewBox="0 0 24 24" fill="none" xmlns="http://www.w3.org/2000/svg">
        <path d="M11.9895 4.83409C9.86992 2.55783 6.26064 2.37763 3.91179 4.42078C1.54324 6.48107 1.34628 10.0264 3.48417 12.3223L11.2682 20.6815C11.4573 20.8846 11.7224 21 12 21C12.2776 21 12.5427 20.8846 12.7318 20.6815L20.5158 12.3223C22.6537 10.0264 22.4568 6.48107 20.0882 4.42078C17.7394 2.37763 14.1301 2.55783 12.0105 4.83409L12 4.84531L11.9895 4.83409Z" fill="#212121"/>
    </symbol>
    <symbol id="heart" width="24" height="24" viewBox="0 0 24 24" fill="none" xmlns="http://www.w3.org/2000/svg">
        <path fill-rule="evenodd" clip-rule="evenodd" d="M3.9118 4.42079C6.26064 2.37764 9.86992 2.55785 11.9896 4.8341L12 4.84533L12.0105 4.8341C14.1301 2.55785 17.7394 2.37764 20.0882 4.42079C22.4568 6.48108 22.6537 10.0264 20.5158 12.3223L12.7318 20.6815C12.5427 20.8846 12.2776 21 12 21C11.7224 21 11.4573 20.8846 11.2682 20.6815L3.48418 12.3223C1.34628 10.0264 1.54325 6.48108 3.9118 4.42079ZM10.5259 6.19706C9.14539 4.71456 6.76458 4.59006 5.2244 5.92979C3.70392 7.25238 3.58562 9.49647 4.94785 10.9594L12 18.5326L19.0522 10.9594C20.4144 9.49647 20.2961 7.25238 18.7756 5.92979C17.2354 4.59006 14.8546 4.71456 13.4741 6.19706L12.7318 6.9942C12.5427 7.19734 12.2776 7.31272 12 7.31272C11.7224 7.31272 11.4573 7.19734 11.2682 6.9942L10.5259 6.19706Z" fill="#212121"/>
    </symbol>
    <symbol id="info" width="24" height="24" viewBox="0 0 24 24" fill="none" xmlns="http://www.w3.org/2000/svg">
        <path d="M11 17V11H13V17H11Z" fill="#212121"/>
        <path d="M13 9V7H11V9H13Z" fill="#212121"/>
        <path fill-rule="evenodd" clip-rule="evenodd" d="M12 22C17.5228 22 22 17.5228 22 12C22 6.47715 17.5228 2 12 2C6.47715 2 2 6.47715 2 12C2 17.5228 6.47715 22 12 22ZM12 20C16.4183 20 20 16.4183 20 12C20 7.58172 16.4183 4 12 4C7.58172 4 4 7.58172 4 12C4 16.4183 7.58172 20 12 20Z" fill="#212121"/>
    </symbol>
    <symbol id="loader" width="24" height="24" viewBox="0 0 24 24" fill="none" xmlns="http://www.w3.org/2000/svg">
        <path fill-rule="evenodd" clip-rule="evenodd" d="M12 4C7.58172 4 4 7.58172 4 12C4 16.4183 7.58172 20 12 20C16.4183 20 20 16.4183 20 12H22C22 17.5228 17.5228 22 12 22C6.47715 22 2 17.5228 2 12C2 6.47715 6.47715 2 12 2C14.7972 2 17.3276 3.14978 19.1414 4.99996L17.7132 6.40004C16.2601 4.91777 14.2381 4 12 4Z" fill="#212121"/>
    </symbol>
    <symbol id="location" width="24" height="24" viewBox="0 0 24 24" fill="none" xmlns="http://www.w3.org/2000/svg">
        <path fill-rule="evenodd" clip-rule="evenodd" d="M20.7071 3.29289C20.986 3.57183 21.0749 3.98868 20.9341 4.35714L14.4341 21.3571C14.2729 21.7787 13.8492 22.0401 13.4001 21.995C12.951 21.9499 12.5878 21.6096 12.5136 21.1644L11.131 12.869L2.8356 11.4864C2.39039 11.4122 2.05007 11.049 2.005 10.5999C1.95993 10.1508 2.22128 9.72714 2.64287 9.56595L19.6429 3.06595C20.0113 2.92507 20.4282 3.01396 20.7071 3.29289ZM6.79659 10.119L12.1644 11.0136C12.5859 11.0838 12.9162 11.4141 12.9864 11.8356L13.881 17.2034L18.2666 5.73336L6.79659 10.119Z" fill="#212121"/>
    </symbol>
    <symbol id="lock" width="24" height="24" viewBox="0 0 24 24" fill="none" xmlns="http://www.w3.org/2000/svg">
        <path d="M13 18V15H11V18H13Z" fill="#212121"/>
        <path fill-rule="evenodd" clip-rule="evenodd" d="M7 7V11H6C4.34315 11 3 12.3431 3 14V19C3 20.6569 4.34315 22 6 22H18C19.6569 22 21 20.6569 21 19V14C21 12.3431 19.6569 11 18 11H17V7C17 4.23858 14.7614 2 12 2C9.23858 2 7 4.23858 7 7ZM15 11V7C15 5.34315 13.6569 4 12 4C10.3431 4 9 5.34315 9 7V11H15ZM6 13H18C18.5523 13 19 13.4477 19 14V19C19 19.5523 18.5523 20 18 20H6C5.44772 20 5 19.5523 5 19V14C5 13.4477 5.44772 13 6 13Z" fill="#212121"/>
    </symbol>
    <symbol id="logo" width="20" height="20" viewBox="0 0 20 20" fill="none" xmlns="http://www.w3.org/2000/svg">
        <path d="M11.2 10H6M11.2 10C12.7464 10 14 8.8807 14 7.5C14 6.11929 12.7464 5 11.2 5H6V15H11.2C12.7464 15 14 13.8807 14 12.5C14 11.1193 12.7464 10 11.2 10Z" stroke="#080808" stroke-width="2" stroke-linecap="round" stroke-linejoin="round"/>
        <path d="M17 1H3C1.89543 1 1 1.89543 1 3V17C1 18.1046 1.89543 19 3 19H17C18.1046 19 19 18.1046 19 17V3C19 1.89543 18.1046 1 17 1Z" stroke="black" stroke-width="2" stroke-linecap="round" stroke-linejoin="round"/>
    </symbol>
    <symbol id="logotype" width="24" height="24" viewBox="0 0 24 24" fill="none" xmlns="http://www.w3.org/2000/svg">
        <path d="M19 5V19.7842H16.4053V17.5989C15.9111 18.3543 15.2172 18.9478 14.3238 19.3795C13.4494 19.7932 12.48 20 11.4155 20C10.1989 20 9.10591 19.7662 8.13646 19.2986C7.16701 18.813 6.39715 18.0935 5.82688 17.1403C5.27563 16.1871 5 15.027 5 13.6601V5H7.56619V13.3363C7.56619 14.7932 7.95587 15.9173 8.73523 16.7086C9.5146 17.482 10.5791 17.8687 11.9287 17.8687C13.3164 17.8687 14.4094 17.464 15.2077 16.6547C16.0061 15.8453 16.4053 14.6673 16.4053 13.1205V5H19Z" fill="#212121"/>
    </symbol>
    <symbol id="logout" width="24" height="24" viewBox="0 0 24 24" fill="none" xmlns="http://www.w3.org/2000/svg">
        <path fill-rule="evenodd" clip-rule="evenodd" d="M17.7071 7.29289L21.7071 11.2929C22.0976 11.6834 22.0976 12.3166 21.7071 12.7071L17.7071 16.7071L16.2929 15.2929L18.5858 13H7V11H18.5858L16.2929 8.70711L17.7071 7.29289Z" fill="#212121"/>
        <path fill-rule="evenodd" clip-rule="evenodd" d="M12 4C7.58172 4 4 7.58172 4 12C4 16.4183 7.58172 20 12 20C13.279 20 14.4852 19.7006 15.555 19.169L16.445 20.96C15.1049 21.626 13.5947 22 12 22C6.47715 22 2 17.5228 2 12C2 6.47715 6.47715 2 12 2C13.5947 2 15.1049 2.37401 16.445 3.04001L15.555 4.83103C14.4852 4.2994 13.279 4 12 4Z" fill="#212121"/>
    </symbol>
    <symbol id="memo" width="24" height="24" viewBox="0 0 24 24" fill="none" xmlns="http://www.w3.org/2000/svg">
        <path d="M7 17H11V13H7V17ZM13 17H17V13H13V17ZM7 11H11V7H7V11ZM13 11H17V7H13V11ZM5 21C4.45 21 3.97917 20.8042 3.5875 20.4125C3.19583 20.0208 3 19.55 3 19V5C3 4.45 3.19583 3.97917 3.5875 3.5875C3.97917 3.19583 4.45 3 5 3H19C19.55 3 20.0208 3.19583 20.4125 3.5875C20.8042 3.97917 21 4.45 21 5V19C21 19.55 20.8042 20.0208 20.4125 20.4125C20.0208 20.8042 19.55 21 19 21H5ZM5 19H19V5H5V19Z" fill="black"/>
    </symbol>
    <symbol id="micro" width="24" height="24" viewBox="0 0 24 24" fill="none" xmlns="http://www.w3.org/2000/svg">
        <path fill-rule="evenodd" clip-rule="evenodd" d="M9 5C9 3.34315 10.3431 2 12 2C13.6569 2 15 3.34315 15 5V11C15 12.6569 13.6569 14 12 14C10.3431 14 9 12.6569 9 11V5ZM13 5V11C13 11.5523 12.5523 12 12 12C11.4477 12 11 11.5523 11 11V5C11 4.44772 11.4477 4 12 4C12.5523 4 13 4.44772 13 5Z" fill="#212121"/>
        <path d="M6 9V13.5C6 15.7091 7.79086 17.5 10 17.5H11V22H13V17.5H14C16.2091 17.5 18 15.7091 18 13.5V9H16V13.5C16 14.6046 15.1046 15.5 14 15.5H10C8.89543 15.5 8 14.6046 8 13.5V9H6Z" fill="#212121"/>
    </symbol>
    <symbol id="minus" width="24" height="24" viewBox="0 0 24 24" fill="none" xmlns="http://www.w3.org/2000/svg">
        <path fill-rule="evenodd" clip-rule="evenodd" d="M21 13H3V11H21V13Z" fill="#212121"/>
    </symbol>
    <symbol id="more" width="24" height="24" viewBox="0 0 24 24" fill="none" xmlns="http://www.w3.org/2000/svg">
        <path d="M14 4C14 5.10457 13.1046 6 12 6C10.8954 6 10 5.10457 10 4C10 2.89543 10.8954 2 12 2C13.1046 2 14 2.89543 14 4Z" fill="#212121"/>
        <path d="M14 12C14 13.1046 13.1046 14 12 14C10.8954 14 10 13.1046 10 12C10 10.8954 10.8954 10 12 10C13.1046 10 14 10.8954 14 12Z" fill="#212121"/>
        <path d="M12 22C13.1046 22 14 21.1046 14 20C14 18.8954 13.1046 18 12 18C10.8954 18 10 18.8954 10 20C10 21.1046 10.8954 22 12 22Z" fill="#212121"/>
    </symbol>
    <symbol id="pin" width="24" height="24" viewBox="0 0 24 24" fill="none" xmlns="http://www.w3.org/2000/svg">
        <path fill-rule="evenodd" clip-rule="evenodd" d="M12 15C14.2091 15 16 13.2091 16 11C16 8.79086 14.2091 7 12 7C9.79086 7 8 8.79086 8 11C8 13.2091 9.79086 15 12 15ZM14 11C14 12.1046 13.1046 13 12 13C10.8954 13 10 12.1046 10 11C10 9.89543 10.8954 9 12 9C13.1046 9 14 9.89543 14 11Z" fill="#212121"/>
        <path fill-rule="evenodd" clip-rule="evenodd" d="M21 11C21 15.9706 15 22.5 12 22.5C9 22.5 3 15.9706 3 11C3 6.02944 7.02944 2 12 2C16.9706 2 21 6.02944 21 11ZM19 11C19 12.7989 17.8427 15.2252 16.0875 17.3348C15.2412 18.352 14.3373 19.1944 13.5241 19.7642C12.6419 20.3825 12.1245 20.5 12 20.5C11.8755 20.5 11.3581 20.3825 10.4759 19.7642C9.66268 19.1944 8.75876 18.352 7.91247 17.3348C6.15732 15.2252 5 12.7989 5 11C5 7.13401 8.13401 4 12 4C15.866 4 19 7.13401 19 11Z" fill="#212121"/>
    </symbol>
    <symbol id="plus" width="24" height="24" viewBox="0 0 24 24" fill="none" xmlns="http://www.w3.org/2000/svg">
        <path fill-rule="evenodd" clip-rule="evenodd" d="M11 11V3H13V11H21V13H13V21H11V13H3V11H11Z" fill="#212121"/>
    </symbol>
    <symbol id="reload" width="24" height="24" viewBox="0 0 24 24" fill="none" xmlns="http://www.w3.org/2000/svg">
        <path d="M5 12.0198C5 8.15378 8.13401 5.01978 12 5.01978C14.3777 5.01978 16.48 6.20542 17.7456 8.01978H14V10.0198H20C20.5523 10.0198 21 9.57206 21 9.01978V3.01978H19V6.36276C17.3506 4.32425 14.8283 3.01978 12 3.01978C7.02944 3.01978 3 7.04921 3 12.0198C3 16.9903 7.02944 21.0198 12 21.0198C16.9706 21.0198 21 16.9903 21 12.0198H19C19 15.8858 15.866 19.0198 12 19.0198C8.13401 19.0198 5 15.8858 5 12.0198Z" fill="#212121"/>
    </symbol>
    <symbol id="sale" width="24" height="24" viewBox="0 0 24 24" fill="none" xmlns="http://www.w3.org/2000/svg">
        <path fill-rule="evenodd" clip-rule="evenodd" d="M7 11C9.20914 11 11 9.20914 11 7C11 4.79086 9.20914 3 7 3C4.79086 3 3 4.79086 3 7C3 9.20914 4.79086 11 7 11ZM7 9C8.10457 9 9 8.10457 9 7C9 5.89543 8.10457 5 7 5C5.89543 5 5 5.89543 5 7C5 8.10457 5.89543 9 7 9Z" fill="#212121"/>
        <path d="M4.29291 18.2929L18.2929 4.29289L19.7071 5.70711L5.70712 19.7071L4.29291 18.2929Z" fill="#212121"/>
        <path fill-rule="evenodd" clip-rule="evenodd" d="M21 17C21 19.2091 19.2091 21 17 21C14.7909 21 13 19.2091 13 17C13 14.7909 14.7909 13 17 13C19.2091 13 21 14.7909 21 17ZM19 17C19 18.1046 18.1046 19 17 19C15.8954 19 15 18.1046 15 17C15 15.8954 15.8954 15 17 15C18.1046 15 19 15.8954 19 17Z" fill="#212121"/>
    </symbol>
    <symbol id="search" width="24" height="24" viewBox="0 0 24 24" fill="none" xmlns="http://www.w3.org/2000/svg">
        <path fill-rule="evenodd" clip-rule="evenodd" d="M15.9057 17.3199C14.551 18.3729 12.8487 19 11 19C6.58172 19 3 15.4183 3 11C3 6.58172 6.58172 3 11 3C15.4183 3 19 6.58172 19 11C19 12.8487 18.3729 14.551 17.3199 15.9056L21.7071 20.2929L20.2929 21.7071L15.9057 17.3199ZM17 11C17 14.3137 14.3137 17 11 17C7.68629 17 5 14.3137 5 11C5 7.68629 7.68629 5 11 5C14.3137 5 17 7.68629 17 11Z" fill="#212121"/>
    </symbol>
    <symbol id="send" width="20" height="20" viewBox="0 0 20 20" fill="none" xmlns="http://www.w3.org/2000/svg">
        <path d="M19 1L1 7L9.62497 10.375M19 1L13 19L9.62497 10.375M19 1L9.62497 10.375" stroke="black" stroke-width="2" stroke-linecap="round" stroke-linejoin="round"/>
    </symbol>
    <symbol id="settings" width="24" height="24" viewBox="0 0 24 24" fill="none" xmlns="http://www.w3.org/2000/svg">
        <path fill-rule="evenodd" clip-rule="evenodd" d="M16 12C16 14.2091 14.2091 16 12 16C9.79085 16 7.99998 14.2091 7.99998 12C7.99998 9.79086 9.79085 8 12 8C14.2091 8 16 9.79086 16 12ZM14 12C14 13.1046 13.1046 14 12 14C10.8954 14 9.99998 13.1046 9.99998 12C9.99998 10.8954 10.8954 10 12 10C13.1046 10 14 10.8954 14 12Z" fill="#212121"/>
        <path fill-rule="evenodd" clip-rule="evenodd" d="M9.98538 3.15554C11.0753 1.98937 12.9247 1.98937 14.0146 3.15554L14.3016 3.46263C14.8452 4.04427 15.6137 4.36258 16.4093 4.33569L16.8294 4.32149C18.4247 4.26758 19.7324 5.57527 19.6785 7.17057L19.6643 7.59066C19.6374 8.38633 19.9557 9.15479 20.5374 9.6984L20.8444 9.98541C22.0106 11.0753 22.0106 12.9247 20.8444 14.0146L20.5374 14.3016C19.9557 14.8452 19.6374 15.6137 19.6643 16.4094L19.6785 16.8295C19.7324 18.4248 18.4247 19.7324 16.8294 19.6785L16.4093 19.6643C15.6137 19.6374 14.8452 19.9558 14.3016 20.5374L14.0146 20.8445C12.9247 22.0106 11.0753 22.0106 9.98538 20.8445L9.69837 20.5374C9.15476 19.9558 8.3863 19.6374 7.59063 19.6643L7.17054 19.6785C5.57524 19.7324 4.26754 18.4248 4.32146 16.8295L4.33565 16.4094C4.36254 15.6137 4.04424 14.8452 3.4626 14.3016L3.15551 14.0146C1.98934 12.9247 1.98934 11.0753 3.15551 9.98541L3.4626 9.6984C4.04424 9.15479 4.36254 8.38633 4.33565 7.59066L4.32146 7.17057C4.26754 5.57527 5.57524 4.26758 7.17054 4.32149L7.59063 4.33569C8.38629 4.36258 9.15476 4.04427 9.69837 3.46263L9.98538 3.15554ZM12.5534 4.52118L12.8404 4.82827C13.7783 5.83176 15.1041 6.38094 16.4769 6.33454L16.897 6.32035C17.3352 6.30554 17.6945 6.66477 17.6796 7.10301L17.6654 7.5231C17.6191 8.89586 18.1682 10.2217 19.1717 11.1596L19.4788 11.4466C19.7992 11.746 19.7992 12.254 19.4788 12.5534L19.1717 12.8405C18.1682 13.7783 17.6191 15.1042 17.6654 16.4769L17.6796 16.897C17.6945 17.3352 17.3352 17.6945 16.897 17.6797L16.4769 17.6655C15.1041 17.6191 13.7783 18.1683 12.8404 19.1717L12.5534 19.4788C12.254 19.7992 11.746 19.7992 11.4466 19.4788L11.1595 19.1717C10.2217 18.1683 8.89583 17.6191 7.52307 17.6655L7.10298 17.6797C6.66474 17.6945 6.30551 17.3352 6.32032 16.897L6.33451 16.4769C6.38091 15.1042 5.83173 13.7783 4.82824 12.8405L4.52115 12.5534C4.20079 12.254 4.20079 11.746 4.52115 11.4466L4.82824 11.1596C5.83173 10.2217 6.38091 8.89587 6.33451 7.52311L6.32032 7.10301C6.30551 6.66477 6.66474 6.30554 7.10298 6.32035L7.52308 6.33454C8.89583 6.38094 10.2217 5.83176 11.1595 4.82827L11.4466 4.52118C11.746 4.20082 12.254 4.20083 12.5534 4.52118Z" fill="#212121"/>
    </symbol>
    <symbol id="share" width="24" height="24" viewBox="0 0 24 24" fill="none" xmlns="http://www.w3.org/2000/svg">
        <path d="M12.7071 3.29289C12.3166 2.90237 11.6834 2.90237 11.2929 3.29289L6.29289 8.29289L7.70711 9.70711L11 6.41421V18H13V6.41421L16.2929 9.70711L17.7071 8.29289L12.7071 3.29289Z" fill="#212121"/>
        <path d="M3 12V21C3 21.5523 3.44772 22 4 22H20C20.5523 22 21 21.5523 21 21V12H19V20H5V12H3Z" fill="#212121"/>
    </symbol>
    <symbol id="star-filled" width="24" height="24" viewBox="0 0 24 24" fill="none" xmlns="http://www.w3.org/2000/svg">
        <path d="M12.8944 2.55279C12.725 2.214 12.3788 2 12 2C11.6212 2 11.275 2.214 11.1056 2.55279L8.33684 8.09026L2.34794 9.01163C1.96612 9.07037 1.65228 9.34379 1.54178 9.71397C1.43128 10.0841 1.54389 10.4849 1.83104 10.7433L6.39314 14.8492L5.02561 20.7751C4.93591 21.1638 5.08581 21.5687 5.40702 21.8052C5.72823 22.0418 6.1593 22.0648 6.50387 21.8638L12 18.6577L17.4961 21.8638C17.8407 22.0648 18.2718 22.0418 18.593 21.8052C18.9142 21.5687 19.0641 21.1638 18.9744 20.7751L17.6069 14.8492L22.169 10.7433C22.4561 10.4849 22.5687 10.0841 22.4582 9.71397C22.3477 9.34379 22.0339 9.07037 21.6521 9.01163L15.6632 8.09026L12.8944 2.55279Z" fill="#212121"/>
    </symbol>
    <symbol id="star" width="24" height="24" viewBox="0 0 24 24" fill="none" xmlns="http://www.w3.org/2000/svg">
        <path fill-rule="evenodd" clip-rule="evenodd" d="M12 2C12.3788 2 12.725 2.214 12.8944 2.55279L15.6632 8.09026L21.6521 9.01163C22.0339 9.07037 22.3477 9.34379 22.4582 9.71397C22.5687 10.0841 22.4561 10.4849 22.169 10.7433L17.6069 14.8492L18.9744 20.7751C19.0641 21.1638 18.9142 21.5687 18.593 21.8052C18.2718 22.0418 17.8407 22.0648 17.4961 21.8638L12 18.6577L6.50387 21.8638C6.1593 22.0648 5.72822 22.0418 5.40701 21.8052C5.0858 21.5687 4.93591 21.1638 5.02561 20.7751L6.39313 14.8492L1.83103 10.7433C1.54388 10.4849 1.43128 10.0841 1.54178 9.71397C1.65228 9.34379 1.96611 9.07037 2.34794 9.01163L8.33683 8.09026L11.1056 2.55279C11.275 2.214 11.6212 2 12 2ZM12 5.23607L9.89442 9.44721C9.74937 9.73732 9.47263 9.93905 9.15205 9.98837L4.73669 10.6677L8.16896 13.7567C8.43919 13.9999 8.55614 14.3706 8.47439 14.7249L7.49464 18.9704L11.4961 16.6362C11.8075 16.4546 12.1925 16.4546 12.5039 16.6362L16.5054 18.9704L15.5256 14.7249C15.4439 14.3706 15.5608 13.9999 15.831 13.7567L19.2633 10.6677L14.8479 9.98837C14.5274 9.93905 14.2506 9.73732 14.1056 9.44721L12 5.23607Z" fill="#212121"/>
    </symbol>
    <symbol id="subsctract" width="24" height="24" viewBox="0 0 24 24" fill="none" xmlns="http://www.w3.org/2000/svg">
        <path d="M7 13H17V11H7V13Z" fill="#212121"/>
        <path fill-rule="evenodd" clip-rule="evenodd" d="M22 12C22 17.5228 17.5228 22 12 22C6.47715 22 2 17.5228 2 12C2 6.47715 6.47715 2 12 2C17.5228 2 22 6.47715 22 12ZM20 12C20 16.4183 16.4183 20 12 20C7.58172 20 4 16.4183 4 12C4 7.58172 7.58172 4 12 4C16.4183 4 20 7.58172 20 12Z" fill="#212121"/>
    </symbol>
    <symbol id="trash" width="24" height="24" viewBox="0 0 24 24" fill="none" xmlns="http://www.w3.org/2000/svg">
        <path fill-rule="evenodd" clip-rule="evenodd" d="M8.0513 2.68377C8.18741 2.27543 8.56955 2 8.99998 2H15C15.4304 2 15.8126 2.27543 15.9487 2.68377L16.7207 5H20V7H4V5H7.27922L8.0513 2.68377ZM14.2792 4L14.6126 5H9.38741L9.72074 4H14.2792Z" fill="#212121"/>
        <path d="M5 9V21C5 21.5523 5.44772 22 6 22H18C18.5523 22 19 21.5523 19 21V9H17V20H7V9H5Z" fill="#212121"/>
        <path d="M9 18V9H11V18H9Z" fill="#212121"/>
        <path d="M13 9V18H15V9H13Z" fill="#212121"/>
    </symbol>
    <symbol id="unlock" width="24" height="24" viewBox="0 0 24 24" fill="none" xmlns="http://www.w3.org/2000/svg">
        <path d="M13 18V15H11V18H13Z" fill="#212121"/>
        <path fill-rule="evenodd" clip-rule="evenodd" d="M9 11V7C9 5.34315 10.3431 4 12 4C13.6569 4 15 5.34315 15 7H17C17 4.23858 14.7614 2 12 2C9.23858 2 7 4.23858 7 7V11H6C4.34315 11 3 12.3431 3 14V19C3 20.6569 4.34315 22 6 22H18C19.6569 22 21 20.6569 21 19V14C21 12.3431 19.6569 11 18 11H9ZM6 13H18C18.5523 13 19 13.4477 19 14V19C19 19.5523 18.5523 20 18 20H6C5.44772 20 5 19.5523 5 19V14C5 13.4477 5.44772 13 6 13Z" fill="#212121"/>
    </symbol>
    <symbol id="user" width="24" height="24" viewBox="0 0 24 24" fill="none" xmlns="http://www.w3.org/2000/svg">
        <path fill-rule="evenodd" clip-rule="evenodd" d="M17 7C17 9.76142 14.7614 12 12 12C9.23858 12 7 9.76142 7 7C7 4.23858 9.23858 2 12 2C14.7614 2 17 4.23858 17 7ZM15 7C15 8.65685 13.6569 10 12 10C10.3431 10 9 8.65685 9 7C9 5.34315 10.3431 4 12 4C13.6569 4 15 5.34315 15 7Z" fill="#212121"/>
        <path d="M4.5 22C5.5 22 5.5 22.0004 5.5 22.0008L5.50011 21.9922C5.50026 21.9822 5.5006 21.9651 5.50134 21.9414C5.50283 21.8939 5.50594 21.8198 5.51241 21.7231C5.52539 21.5292 5.55177 21.2463 5.6052 20.9044C5.71283 20.2155 5.92621 19.3135 6.34296 18.4244C6.75859 17.5377 7.36344 16.6908 8.24359 16.065C9.1142 15.4459 10.3138 15 12 15C13.6862 15 14.8858 15.4459 15.7564 16.065C16.6366 16.6908 17.2414 17.5377 17.657 18.4244C18.0738 19.3135 18.2872 20.2155 18.3948 20.9044C18.4482 21.2463 18.4746 21.5292 18.4876 21.7231C18.4941 21.8198 18.4972 21.8939 18.4987 21.9414C18.4994 21.9651 18.4997 21.9822 18.4999 21.9922L18.5 22.0008C18.5 22.0004 18.5 22 19.5 22C20.5 22 20.5 21.9995 20.5 21.999L20.5 21.9978L20.5 21.9949L20.4999 21.9868L20.4997 21.9619C20.4993 21.9416 20.4988 21.9138 20.4977 21.8789C20.4955 21.8093 20.4913 21.7114 20.4831 21.5894C20.4668 21.3458 20.4346 21.0037 20.3708 20.5956C20.2441 19.7845 19.9887 18.6865 19.468 17.5756C18.9461 16.4623 18.1447 15.3092 16.9155 14.435C15.6767 13.5541 14.0638 13 12 13C9.93623 13 8.3233 13.5541 7.08454 14.435C5.85531 15.3092 5.05391 16.4623 4.53204 17.5756C4.01129 18.6865 3.75592 19.7845 3.62918 20.5956C3.56541 21.0037 3.5332 21.3458 3.51688 21.5894C3.50871 21.7114 3.5045 21.8093 3.50232 21.8789C3.50123 21.9138 3.50065 21.9416 3.50034 21.9619L3.50006 21.9868L3.50001 21.9949L3.5 21.9978V21.999C3.5 21.9995 3.5 22 4.5 22Z" fill="#212121"/>
    </symbol>
</svg>