<svg width="24" height="24" viewBox="0 0 24 24" fill="none" xmlns="http://www.w3.org/2000/svg">
<path fill-rule="evenodd" clip-rule="evenodd" d="M18.0005 12.1928C18.0005 10.3617 19.047 9.20315 19.7692 8.61927C20.0925 8.35788 20.3509 8.21167 20.4212 8.17186C20.4286 8.16767 20.4339 8.16466 20.437 8.16282C19.9959 7.51749 19.4608 7.06913 18.9177 6.75868C17.8926 6.17269 16.839 6.07805 16.3347 6.07756C16.3243 6.07756 16.314 6.07759 16.3036 6.07766C15.2563 6.08404 14.2816 6.4115 13.4859 6.67882C12.9334 6.86443 12.4672 7.02105 12.123 7.02105C12.0393 7.02105 11.9519 7.01214 11.8612 6.99603C11.5416 6.93932 11.1795 6.79351 10.7839 6.63426C10.5573 6.54302 10.3198 6.44737 10.073 6.36153C9.5841 6.1915 9.05897 6.05998 8.51097 6.07756C6.62552 6.1125 4.89898 7.17223 3.9319 8.73332C3.24672 9.85154 2.97679 11.168 3.00155 12.5073C3.03829 15.0347 4.07884 17.6669 5.30307 19.3442C6.24539 20.6258 7.3107 22 8.81683 22C9.45112 22 9.8988 21.8122 10.3763 21.6119C10.9221 21.383 11.5068 21.1378 12.4536 21.1378C13.3097 21.1378 13.8603 21.369 14.3913 21.592C14.8856 21.7996 15.3629 22 16.0536 22C17.5597 22 18.5515 20.6957 19.4452 19.402C19.7444 19.0028 19.991 18.6085 20.1927 18.2436C20.6145 17.4805 20.8398 16.846 20.9399 16.564C20.9721 16.4735 20.9913 16.4193 21 16.4089C20.9736 16.4089 20.1266 16.0872 19.3389 15.2951C18.6738 14.6262 18.051 13.622 18.0005 12.1928ZM18.4785 17.2098C18.3791 17.1289 18.2785 17.0427 18.1777 16.9511C17.1549 16.0209 16.0804 14.4905 16.0018 12.2634L16.0005 12.2281V12.1928C16.0005 10.4793 16.6411 9.16506 17.3531 8.24424C16.9504 8.1128 16.5765 8.07789 16.3337 8.07756C15.7712 8.07774 15.1795 8.22789 14.495 8.45091C14.401 8.48154 14.2912 8.51836 14.1749 8.55738C13.9381 8.63679 13.6742 8.72529 13.4609 8.78928C13.144 8.88433 12.6473 9.02105 12.123 9.02105C11.5639 9.02105 11.0646 8.87051 10.738 8.75792C10.4939 8.67378 10.2145 8.56126 9.98978 8.47073C9.91786 8.44176 9.85154 8.41505 9.79375 8.39224C9.19959 8.15769 8.85189 8.06765 8.57509 8.07653L8.56156 8.07696L8.54803 8.07721C7.38853 8.0987 6.26902 8.76153 5.63468 9.78241C5.19702 10.4988 4.98169 11.4143 5.00121 12.4703L5.00136 12.4782C5.03139 14.5447 5.90881 16.7804 6.91662 18.1625C7.39934 18.8189 7.78305 19.3109 8.16985 19.6513C8.53314 19.9711 8.72415 20 8.81683 20C9.03201 20 9.13172 19.9636 9.71001 19.7227C10.3251 19.4665 11.1798 19.1378 12.4536 19.1378C13.6885 19.1378 14.5303 19.4817 15.1093 19.7244C15.6437 19.9483 15.7878 20 16.0536 20C16.1667 20 16.3378 19.9696 16.6492 19.6923C16.9968 19.3828 17.3478 18.9193 17.7996 18.2653L17.8217 18.2333L17.845 18.2022C18.1006 17.8613 18.3095 17.5223 18.4785 17.2098ZM11.967 4.94988C11.9333 5.23276 11.9401 5.52146 12.0008 5.81016C12.0414 5.81494 12.0821 5.81873 12.123 5.82154C12.7058 5.86175 13.3068 5.70429 13.8518 5.42098C13.8856 5.40343 13.9191 5.38539 13.9525 5.36689C14.445 5.0934 14.8867 4.7181 15.2207 4.29616C15.2686 4.24585 15.3153 4.19446 15.3607 4.14205C15.6454 3.81377 15.8812 3.44534 16.0598 3.05098C16.2794 2.56621 16.4128 2.04225 16.4449 1.50543C16.4549 1.33794 16.455 1.16919 16.4449 1C16.3162 1 16.1853 1.008 16.053 1.02354C15.5138 1.08686 14.9521 1.27529 14.4316 1.55692C13.9374 1.82432 13.4803 2.17574 13.1148 2.58389C12.825 2.92578 12.5259 3.35274 12.3029 3.82747C12.2698 3.89794 12.2384 3.96947 12.2089 4.04193C12.0908 4.33225 12.0042 4.63752 11.967 4.94988Z" fill="#212121"/>
</svg>
