<svg width="24" height="24" viewBox="0 0 24 24" fill="none" xmlns="http://www.w3.org/2000/svg">
<path fill-rule="evenodd" clip-rule="evenodd" d="M7.75294 4.89999C7.30889 4.89999 6.84706 5.30092 6.84706 5.92499V18.075C6.84706 18.6991 7.30889 19.1 7.75294 19.1H17.0447V4.89999H7.75294ZM4.84706 5.92499C4.84706 4.31231 6.09182 2.89999 7.75294 2.89999H18.0447C18.597 2.89999 19.0447 3.34771 19.0447 3.89999V20.1C19.0447 20.6523 18.597 21.1 18.0447 21.1H7.75294C6.09182 21.1 4.84706 19.6877 4.84706 18.075V5.92499Z" fill="#212121"/>
<path fill-rule="evenodd" clip-rule="evenodd" d="M7.75293 17.05C7.30889 17.05 6.84706 17.4509 6.84706 18.075C6.84706 18.6273 6.39935 19.075 5.84706 19.075C5.29478 19.075 4.84706 18.6273 4.84706 18.075C4.84706 16.4623 6.0918 15.05 7.75293 15.05H18.0447C18.597 15.05 19.0447 15.4977 19.0447 16.05C19.0447 16.6023 18.597 17.05 18.0447 17.05H7.75293Z" fill="#212121"/>
</svg>
