<svg width="24" height="24" viewBox="0 0 24 24" fill="none" xmlns="http://www.w3.org/2000/svg">
<path fill-rule="evenodd" clip-rule="evenodd" d="M5.88708 16.6987L4.29291 18.2929L5.70712 19.7071L7.61428 17.8C8.9559 18.517 10.4513 19 12 19C17.3137 19 22 13.3137 22 12C22 11.2435 20.4459 9.03695 18.113 7.30129L19.7071 5.70712L18.2929 4.29291L16.3858 6.20006C15.0441 5.48303 13.5487 5 12 5C6.68629 5 2 10.6863 2 12C2 12.7565 3.55407 14.9631 5.88708 16.6987ZM7.31865 15.2672C6.97189 15.0212 6.63615 14.7568 6.31476 14.4791C5.50568 13.7802 4.85948 13.0581 4.4324 12.4712C4.29918 12.2881 4.19579 12.1298 4.11871 12C4.19579 11.8702 4.29918 11.7119 4.4324 11.5288C4.85948 10.9419 5.50568 10.2198 6.31476 9.52087C7.97865 8.08357 10.0268 7 12 7C12.9647 7 13.9473 7.25899 14.8941 7.69169L7.31865 15.2672ZM9.10591 16.3083C10.0528 16.741 11.0353 17 12 17C13.9732 17 16.0214 15.9164 17.6852 14.4791C18.4943 13.7802 19.1405 13.0581 19.5676 12.4712C19.7008 12.2881 19.8042 12.1298 19.8813 12C19.8042 11.8702 19.7008 11.7119 19.5676 11.5288C19.1405 10.9419 18.4943 10.2198 17.6852 9.52087C17.3639 9.24325 17.0281 8.97883 16.6814 8.73286L9.10591 16.3083ZM20.0434 11.6805C20.0434 11.6805 20.0419 11.6866 20.0368 11.6998C20.0405 11.6872 20.0434 11.6805 20.0434 11.6805ZM3.95657 11.6805C3.95657 11.6805 3.95951 11.6872 3.96326 11.6998C3.95809 11.6866 3.95657 11.6805 3.95657 11.6805ZM3.95657 12.3195C3.95657 12.3195 3.95809 12.3134 3.96326 12.3001C3.95951 12.3128 3.95657 12.3195 3.95657 12.3195ZM20.0368 12.3002C20.0419 12.3134 20.0434 12.3195 20.0434 12.3195C20.0434 12.3195 20.0405 12.3128 20.0368 12.3002Z" fill="#212121"/>
</svg>
