<svg width="24" height="24" viewBox="0 0 24 24" fill="none" xmlns="http://www.w3.org/2000/svg">
<path fill-rule="evenodd" clip-rule="evenodd" d="M15 12C15 13.6569 13.6569 15 12 15C10.3431 15 9 13.6569 9 12C9 10.3431 10.3431 9 12 9C13.6569 9 15 10.3431 15 12ZM13 12C13 12.5523 12.5523 13 12 13C11.4477 13 11 12.5523 11 12C11 11.4477 11.4477 11 12 11C12.5523 11 13 11.4477 13 12Z" fill="#212121"/>
<path fill-rule="evenodd" clip-rule="evenodd" d="M22 12C22 13.3137 17.3137 19 12 19C6.68629 19 2 13.3137 2 12C2 10.6863 6.68629 5 12 5C17.3137 5 22 10.6863 22 12ZM20.0434 11.6805C20.0434 11.6805 20.0419 11.6866 20.0368 11.6998C20.0405 11.6872 20.0434 11.6805 20.0434 11.6805ZM19.5676 11.5288C19.7008 11.7119 19.8042 11.8702 19.8813 12C19.8042 12.1298 19.7008 12.2881 19.5676 12.4712C19.1405 13.0581 18.4943 13.7802 17.6852 14.4791C16.0214 15.9164 13.9732 17 12 17C10.0268 17 7.97865 15.9164 6.31476 14.4791C5.50568 13.7802 4.85948 13.0581 4.4324 12.4712C4.29918 12.2881 4.19579 12.1298 4.11871 12C4.19579 11.8702 4.29918 11.7119 4.4324 11.5288C4.85948 10.9419 5.50568 10.2198 6.31476 9.52087C7.97865 8.08357 10.0268 7 12 7C13.9732 7 16.0214 8.08357 17.6852 9.52087C18.4943 10.2198 19.1405 10.9419 19.5676 11.5288ZM3.95657 11.6805C3.95657 11.6805 3.95951 11.6872 3.96326 11.6998C3.95809 11.6866 3.95657 11.6805 3.95657 11.6805ZM3.95657 12.3195C3.95657 12.3195 3.95809 12.3134 3.96326 12.3001C3.95951 12.3128 3.95657 12.3195 3.95657 12.3195ZM20.0368 12.3002C20.0419 12.3134 20.0434 12.3195 20.0434 12.3195C20.0434 12.3195 20.0405 12.3128 20.0368 12.3002Z" fill="#212121"/>
</svg>
