<svg width="24" height="24" viewBox="0 0 24 24" fill="none" xmlns="http://www.w3.org/2000/svg">
<path fill-rule="evenodd" clip-rule="evenodd" d="M3.9118 4.42079C6.26064 2.37764 9.86992 2.55785 11.9896 4.8341L12 4.84533L12.0105 4.8341C14.1301 2.55785 17.7394 2.37764 20.0882 4.42079C22.4568 6.48108 22.6537 10.0264 20.5158 12.3223L12.7318 20.6815C12.5427 20.8846 12.2776 21 12 21C11.7224 21 11.4573 20.8846 11.2682 20.6815L3.48418 12.3223C1.34628 10.0264 1.54325 6.48108 3.9118 4.42079ZM10.5259 6.19706C9.14539 4.71456 6.76458 4.59006 5.2244 5.92979C3.70392 7.25238 3.58562 9.49647 4.94785 10.9594L12 18.5326L19.0522 10.9594C20.4144 9.49647 20.2961 7.25238 18.7756 5.92979C17.2354 4.59006 14.8546 4.71456 13.4741 6.19706L12.7318 6.9942C12.5427 7.19734 12.2776 7.31272 12 7.31272C11.7224 7.31272 11.4573 7.19734 11.2682 6.9942L10.5259 6.19706Z" fill="#212121"/>
</svg>
