<svg width="24" height="24" viewBox="0 0 24 24" fill="none" xmlns="http://www.w3.org/2000/svg">
<path fill-rule="evenodd" clip-rule="evenodd" d="M7.44444 7.55556C7.44444 7.00327 7.89216 6.55556 8.44444 6.55556H13.0667C14.884 6.55556 16.5556 7.89465 16.5556 9.77778C16.5556 10.6682 16.1819 11.4369 15.5957 12C16.1819 12.5631 16.5556 13.3318 16.5556 14.2222C16.5556 16.1053 14.884 17.4444 13.0667 17.4444H8.44444C7.89216 17.4444 7.44444 16.9967 7.44444 16.4444V7.55556ZM9.44444 13V15.4444H13.0667C13.9985 15.4444 14.5556 14.7937 14.5556 14.2222C14.5556 13.6508 13.9985 13 13.0667 13H9.44444ZM13.0667 11C13.9985 11 14.5556 10.3492 14.5556 9.77778C14.5556 9.20631 13.9985 8.55556 13.0667 8.55556H9.44444V11H13.0667Z" fill="#212121"/>
<path fill-rule="evenodd" clip-rule="evenodd" d="M5.77778 5C5.34822 5 5 5.34822 5 5.77778V18.2222C5 18.6518 5.34822 19 5.77778 19H18.2222C18.6518 19 19 18.6518 19 18.2222V5.77778C19 5.34822 18.6518 5 18.2222 5H5.77778ZM3 5.77778C3 4.24365 4.24365 3 5.77778 3H18.2222C19.7563 3 21 4.24365 21 5.77778V18.2222C21 19.7563 19.7563 21 18.2222 21H5.77778C4.24365 21 3 19.7563 3 18.2222V5.77778Z" fill="#212121"/>
</svg>
