<svg width="24" height="24" viewBox="0 0 24 24" fill="none" xmlns="http://www.w3.org/2000/svg">
<path fill-rule="evenodd" clip-rule="evenodd" d="M20.7071 3.29292C20.9749 3.56075 21.0685 3.95692 20.9487 4.31626L15.282 21.3163C15.1489 21.7157 14.7798 21.9889 14.3589 21.9997C13.938 22.0105 13.5555 21.7565 13.4021 21.3644L10.374 13.626L2.6356 10.5979C2.24353 10.4445 1.98955 10.062 2.00033 9.64108C2.01112 9.2202 2.28436 8.85115 2.68377 8.71801L19.6838 3.05134C20.0431 2.93157 20.4393 3.02509 20.7071 3.29292ZM12.3154 13.0989L14.2581 18.0635L17.7117 7.7025L12.3154 13.0989ZM16.2975 6.28827L5.93652 9.74195L10.9012 11.6847L16.2975 6.28827Z" fill="#212121"/>
</svg>
