<svg width="24" height="24" viewBox="0 0 24 24" fill="none" xmlns="http://www.w3.org/2000/svg">
<path fill-rule="evenodd" clip-rule="evenodd" d="M16 12C16 14.2091 14.2091 16 12 16C9.79085 16 7.99998 14.2091 7.99998 12C7.99998 9.79086 9.79085 8 12 8C14.2091 8 16 9.79086 16 12ZM14 12C14 13.1046 13.1046 14 12 14C10.8954 14 9.99998 13.1046 9.99998 12C9.99998 10.8954 10.8954 10 12 10C13.1046 10 14 10.8954 14 12Z" fill="#212121"/>
<path fill-rule="evenodd" clip-rule="evenodd" d="M9.98538 3.15554C11.0753 1.98937 12.9247 1.98937 14.0146 3.15554L14.3016 3.46263C14.8452 4.04427 15.6137 4.36258 16.4093 4.33569L16.8294 4.32149C18.4247 4.26758 19.7324 5.57527 19.6785 7.17057L19.6643 7.59066C19.6374 8.38633 19.9557 9.15479 20.5374 9.6984L20.8444 9.98541C22.0106 11.0753 22.0106 12.9247 20.8444 14.0146L20.5374 14.3016C19.9557 14.8452 19.6374 15.6137 19.6643 16.4094L19.6785 16.8295C19.7324 18.4248 18.4247 19.7324 16.8294 19.6785L16.4093 19.6643C15.6137 19.6374 14.8452 19.9558 14.3016 20.5374L14.0146 20.8445C12.9247 22.0106 11.0753 22.0106 9.98538 20.8445L9.69837 20.5374C9.15476 19.9558 8.3863 19.6374 7.59063 19.6643L7.17054 19.6785C5.57524 19.7324 4.26754 18.4248 4.32146 16.8295L4.33565 16.4094C4.36254 15.6137 4.04424 14.8452 3.4626 14.3016L3.15551 14.0146C1.98934 12.9247 1.98934 11.0753 3.15551 9.98541L3.4626 9.6984C4.04424 9.15479 4.36254 8.38633 4.33565 7.59066L4.32146 7.17057C4.26754 5.57527 5.57524 4.26758 7.17054 4.32149L7.59063 4.33569C8.38629 4.36258 9.15476 4.04427 9.69837 3.46263L9.98538 3.15554ZM12.5534 4.52118L12.8404 4.82827C13.7783 5.83176 15.1041 6.38094 16.4769 6.33454L16.897 6.32035C17.3352 6.30554 17.6945 6.66477 17.6796 7.10301L17.6654 7.5231C17.6191 8.89586 18.1682 10.2217 19.1717 11.1596L19.4788 11.4466C19.7992 11.746 19.7992 12.254 19.4788 12.5534L19.1717 12.8405C18.1682 13.7783 17.6191 15.1042 17.6654 16.4769L17.6796 16.897C17.6945 17.3352 17.3352 17.6945 16.897 17.6797L16.4769 17.6655C15.1041 17.6191 13.7783 18.1683 12.8404 19.1717L12.5534 19.4788C12.254 19.7992 11.746 19.7992 11.4466 19.4788L11.1595 19.1717C10.2217 18.1683 8.89583 17.6191 7.52307 17.6655L7.10298 17.6797C6.66474 17.6945 6.30551 17.3352 6.32032 16.897L6.33451 16.4769C6.38091 15.1042 5.83173 13.7783 4.82824 12.8405L4.52115 12.5534C4.20079 12.254 4.20079 11.746 4.52115 11.4466L4.82824 11.1596C5.83173 10.2217 6.38091 8.89587 6.33451 7.52311L6.32032 7.10301C6.30551 6.66477 6.66474 6.30554 7.10298 6.32035L7.52308 6.33454C8.89583 6.38094 10.2217 5.83176 11.1595 4.82827L11.4466 4.52118C11.746 4.20082 12.254 4.20083 12.5534 4.52118Z" fill="#212121"/>
</svg>
