<svg xmlns="http://www.w3.org/2000/svg" xmlns:xlink="http://www.w3.org/1999/xlink"><symbol fill="currentColor" viewBox="0 0 24 24" id="add"><path d="M11 7v4H7v2h4v4h2v-4h4v-2h-4V7h-2Z"/><path fill-rule="evenodd" clip-rule="evenodd" d="M22 12c0 5.523-4.477 10-10 10S2 17.523 2 12 6.477 2 12 2s10 4.477 10 10Zm-2 0a8 8 0 1 1-16 0 8 8 0 0 1 16 0Z"/></symbol><symbol fill="currentColor" viewBox="0 0 24 24" id="alert"><path d="M11 13V7h2v6h-2ZM13 17v-2h-2v2h2Z"/><path fill-rule="evenodd" clip-rule="evenodd" d="M12 22c5.523 0 10-4.477 10-10S17.523 2 12 2 2 6.477 2 12s4.477 10 10 10Zm0-2a8 8 0 1 0 0-16 8 8 0 0 0 0 16Z"/></symbol><symbol fill="currentColor" viewBox="0 0 24 24" id="apple"><path fill-rule="evenodd" clip-rule="evenodd" d="M18 12.193c0-1.831 1.047-2.99 1.77-3.574.323-.261.58-.407.651-.447l.016-.01a4.572 4.572 0 0 0-1.52-1.403 5.391 5.391 0 0 0-2.613-.681c-1.048.006-2.022.333-2.818.6-.553.186-1.019.343-1.363.343-.084 0-.171-.009-.262-.025-.32-.057-.681-.202-1.077-.362-.227-.091-.464-.187-.711-.272-.489-.17-1.014-.302-1.562-.284-1.885.034-3.612 1.094-4.58 2.655-.684 1.119-.954 2.435-.93 3.774.037 2.528 1.078 5.16 2.302 6.837C6.245 20.626 7.311 22 8.817 22c.634 0 1.082-.188 1.56-.388.545-.229 1.13-.474 2.077-.474.856 0 1.406.231 1.937.454.495.208.972.408 1.663.408 1.506 0 2.498-1.304 3.391-2.598.3-.4.546-.794.748-1.158a10.85 10.85 0 0 0 .747-1.68c.032-.09.051-.145.06-.155-.026 0-.873-.322-1.661-1.114A4.517 4.517 0 0 1 18 12.193Zm.479 5.017c-.1-.081-.2-.167-.301-.259-1.023-.93-2.098-2.46-2.176-4.688L16 12.228v-.035c0-1.714.641-3.028 1.353-3.949a3.395 3.395 0 0 0-1.02-.166c-.562 0-1.153.15-1.838.373-.094.03-.204.067-.32.106-.237.08-.5.168-.714.232-.317.095-.814.232-1.338.232-.56 0-1.058-.15-1.385-.263a16.583 16.583 0 0 1-.748-.287 31.773 31.773 0 0 0-.196-.079c-.594-.234-.942-.324-1.219-.315h-.027c-1.16.022-2.279.685-2.913 1.705-.438.717-.653 1.632-.634 2.688v.008c.03 2.067.908 4.302 1.916 5.685.482.656.866 1.148 1.253 1.488.363.32.554.349.647.349.215 0 .315-.036.893-.277.615-.256 1.47-.585 2.744-.585 1.234 0 2.076.344 2.655.586.535.224.679.276.945.276.113 0 .284-.03.595-.308.348-.31.699-.773 1.15-1.427l.023-.032.023-.03a8 8 0 0 0 .634-.993ZM11.966 4.95c-.034.283-.027.571.034.86.04.005.081.009.122.012.583.04 1.184-.118 1.729-.401l.1-.054a4.297 4.297 0 0 0 1.269-1.07 4.502 4.502 0 0 0 .84-1.245 4.384 4.384 0 0 0 .384-2.052c-.129 0-.26.008-.392.024-.54.063-1.1.251-1.621.533a4.924 4.924 0 0 0-1.317 1.027c-.29.342-.59.769-.812 1.243-.033.07-.065.142-.094.215-.118.29-.205.596-.242.908Z"/></symbol><symbol fill="currentColor" viewBox="0 0 24 24" id="arrow-down"><path fill-rule="evenodd" clip-rule="evenodd" d="m13 18.586 5.793-5.793 1.414 1.414-7.5 7.5a1 1 0 0 1-1.414 0l-7.5-7.5 1.414-1.414L11 18.586V2h2v16.586Z"/></symbol><symbol fill="currentColor" viewBox="0 0 24 24" id="arrow-left"><path fill-rule="evenodd" clip-rule="evenodd" d="m5.414 13 5.793 5.793-1.414 1.414-7.5-7.5a1 1 0 0 1 0-1.414l7.5-7.5 1.414 1.414L5.414 11H22v2H5.414Z"/></symbol><symbol fill="currentColor" viewBox="0 0 24 24" id="arrow-left-down"><path fill-rule="evenodd" clip-rule="evenodd" d="M7.636 17.364h8.192v2H5.222a1 1 0 0 1-1-1V7.757h2v8.193L17.95 4.222l1.414 1.414L7.636 17.364Z"/></symbol><symbol fill="currentColor" viewBox="0 0 24 24" id="arrow-left-up"><path fill-rule="evenodd" clip-rule="evenodd" d="M6.222 7.636v8.192h-2V5.222a1 1 0 0 1 1-1h10.606v2H7.636L19.364 17.95l-1.414 1.414L6.222 7.636Z"/></symbol><symbol fill="currentColor" viewBox="0 0 24 24" id="arrow-right"><path fill-rule="evenodd" clip-rule="evenodd" d="m18.586 11-5.793-5.793 1.414-1.414 7.5 7.5a1 1 0 0 1 0 1.414l-7.5 7.5-1.414-1.414L18.586 13H2v-2h16.586Z"/></symbol><symbol fill="currentColor" viewBox="0 0 24 24" id="arrow-right-down"><path fill-rule="evenodd" clip-rule="evenodd" d="M17.364 15.95V7.757h2v10.607a1 1 0 0 1-1 1H7.757v-2h8.193L4.222 5.636l1.414-1.414L17.364 15.95Z"/></symbol><symbol fill="currentColor" viewBox="0 0 24 24" id="arrow-right-up"><path fill-rule="evenodd" clip-rule="evenodd" d="M15.95 6.222H7.757v-2h10.607a1 1 0 0 1 1 1v10.606h-2V7.636L5.636 19.364 4.222 17.95 15.95 6.222Z"/></symbol><symbol fill="currentColor" viewBox="0 0 24 24" id="arrow-up"><path fill-rule="evenodd" clip-rule="evenodd" d="m11 5.414-5.793 5.793-1.414-1.414 7.5-7.5a1 1 0 0 1 1.414 0l7.5 7.5-1.414 1.414L13 5.414V22h-2V5.414Z"/></symbol><symbol fill="currentColor" viewBox="0 0 24 24" id="bag"><path fill-rule="evenodd" clip-rule="evenodd" d="M12 2a4 4 0 0 0-4 4v1H7a3 3 0 0 0-3 3v9a3 3 0 0 0 3 3h10a3 3 0 0 0 3-3v-9a3 3 0 0 0-3-3h-1V6a4 4 0 0 0-4-4Zm2 7v2h2V9h1a1 1 0 0 1 1 1v9a1 1 0 0 1-1 1H7a1 1 0 0 1-1-1v-9a1 1 0 0 1 1-1h1v2h2V9h4Zm0-2V6a2 2 0 1 0-4 0v1h4Z"/></symbol><symbol fill="currentColor" viewBox="0 0 24 24" id="bell"><path fill-rule="evenodd" clip-rule="evenodd" d="M5 9a7 7 0 0 1 14 0v1.312c0 .44.175.863.487 1.175l.756.756a2 2 0 0 1 .547 1.807l-.468 2.342A2 2 0 0 1 18.36 18H16a4 4 0 0 1-8 0H5.64a2 2 0 0 1-1.962-1.608L3.21 14.05a2 2 0 0 1 .547-1.807l.756-.756c.312-.312.487-.735.487-1.175V9Zm2 1.312V9a5 5 0 0 1 10 0v1.312c0 .97.386 1.902 1.073 2.59l.756.755L18.36 16H5.64l-.469-2.343.756-.756A3.662 3.662 0 0 0 7 10.311ZM10 18a2 2 0 1 0 4 0h-4Z"/></symbol><symbol fill="currentColor" viewBox="0 0 24 24" id="book"><path fill-rule="evenodd" clip-rule="evenodd" d="M7.753 4.9c-.444 0-.906.4-.906 1.025v12.15c0 .624.462 1.025.906 1.025h9.292V4.9H7.753ZM4.847 5.925c0-1.613 1.245-3.025 2.906-3.025h10.292a1 1 0 0 1 1 1v16.2a1 1 0 0 1-1 1H7.753c-1.661 0-2.906-1.412-2.906-3.025V5.925Z"/><path fill-rule="evenodd" clip-rule="evenodd" d="M7.753 17.05c-.444 0-.906.4-.906 1.025a1 1 0 1 1-2 0c0-1.613 1.245-3.025 2.906-3.025h10.292a1 1 0 1 1 0 2H7.753Z"/></symbol><symbol fill="currentColor" viewBox="0 0 24 24" id="burger"><path d="M21 7H3V5h18v2ZM21 13H3v-2h18v2ZM3 19h18v-2H3v2Z"/></symbol><symbol fill="currentColor" viewBox="0 0 24 24" id="calendar"><path d="M5 22c-.55 0-1.02-.196-1.413-.587A1.926 1.926 0 0 1 3 20V6c0-.55.196-1.02.587-1.412A1.926 1.926 0 0 1 5 4h1V2h2v2h8V2h2v2h1c.55 0 1.02.196 1.413.588.391.391.587.862.587 1.412v5h-2v-1H5v10h7v2H5ZM5 8h14V6H5v2Zm9 14v-3.075l5.525-5.5c.15-.15.317-.258.5-.325a1.6 1.6 0 0 1 .55-.1 1.504 1.504 0 0 1 1.075.45l.925.925c.133.15.238.317.313.5.074.183.112.367.112.55 0 .183-.033.37-.1.563a1.342 1.342 0 0 1-.325.512l-5.5 5.5H14Zm1.5-1.5h.95l3.025-3.05-.45-.475-.475-.45-3.05 3.025v.95Zm3.525-3.525-.475-.45.925.925-.45-.475Z"/></symbol><symbol fill="currentColor" viewBox="0 0 24 24" id="calendar2"><path d="M16 17a1 1 0 1 0 0-2 1 1 0 0 0 0 2Z"/><path fill-rule="evenodd" clip-rule="evenodd" d="M7 3h2v2h6V3h2v2a4 4 0 0 1 4 4v8a4 4 0 0 1-4 4H7a4 4 0 0 1-4-4V9a4 4 0 0 1 4-4V3Zm8 4v2h2V7a2 2 0 0 1 2 2v2H5V9a2 2 0 0 1 2-2v2h2V7h6ZM5 13h14v4a2 2 0 0 1-2 2H7a2 2 0 0 1-2-2v-4Z"/></symbol><symbol fill="currentColor" viewBox="0 0 24 24" id="camera"><path fill-rule="evenodd" clip-rule="evenodd" d="M12 17a4 4 0 1 0 0-8 4 4 0 0 0 0 8Zm0-2a2 2 0 1 0 0-4 2 2 0 0 0 0 4Z"/><path d="M17 10a1 1 0 1 0 0-2 1 1 0 0 0 0 2Z"/><path fill-rule="evenodd" clip-rule="evenodd" d="M9.109 3.546C9 3.76 9 4.04 9 4.6V5h.4c-2.24 0-3.36 0-4.216.436a4 4 0 0 0-1.748 1.748C3 8.04 3 9.16 3 11.4v3.2c0 2.24 0 3.36.436 4.216a4 4 0 0 0 1.748 1.748C6.04 21 7.16 21 9.4 21h5.2c2.24 0 3.36 0 4.216-.436a4 4 0 0 0 1.748-1.748C21 17.96 21 16.84 21 14.6v-3.2c0-2.24 0-3.36-.436-4.216a4 4 0 0 0-1.748-1.748C17.96 5 16.84 5 14.6 5h.4v-.4c0-.56 0-.84-.109-1.054a1 1 0 0 0-.437-.437C14.24 3 13.96 3 13.4 3h-2.8c-.56 0-.84 0-1.054.109a1 1 0 0 0-.437.437ZM9.4 7h5.2c1.153 0 1.898.002 2.464.048.544.044.745.12.844.17a2 2 0 0 1 .874.874c.05.099.126.3.17.844.046.566.048 1.31.048 2.464v3.2c0 1.153-.002 1.898-.048 2.464-.044.544-.12.745-.17.844a2 2 0 0 1-.874.874c-.099.05-.3.126-.844.17-.566.046-1.31.048-2.464.048H9.4c-1.153 0-1.898-.002-2.464-.048-.544-.044-.745-.12-.844-.17a2 2 0 0 1-.874-.874c-.05-.099-.126-.3-.17-.844C5.002 16.498 5 15.754 5 14.6v-3.2c0-1.153.002-1.898.048-2.464.044-.544.12-.745.17-.844a2 2 0 0 1 .874-.874c.099-.05.3-.126.844-.17C7.502 7.002 8.246 7 9.4 7Z"/></symbol><symbol fill="currentColor" viewBox="0 0 24 24" id="caps"><path fill-rule="evenodd" clip-rule="evenodd" d="M11.293 3.293a1 1 0 0 1 1.414 0l7 7A1 1 0 0 1 19 12h-2v9a1 1 0 0 1-1 1H8a1 1 0 0 1-1-1v-9H5a1 1 0 0 1-.707-1.707l7-7ZM7.414 10H8a1 1 0 0 1 1 1v9h6v-9a1 1 0 0 1 1-1h.586L12 5.414 7.414 10Z"/></symbol><symbol fill="currentColor" viewBox="0 0 24 24" id="car"><path fill-rule="evenodd" clip-rule="evenodd" d="M6.808 3a2 2 0 0 0-1.955 1.58l-1.217 5.678a1.998 1.998 0 0 0-.807.848l-.618 1.236a2 2 0 0 0-.211.894V19a2 2 0 0 0 2 2h2a2 2 0 0 0 2-2h8a2 2 0 0 0 2 2h2a2 2 0 0 0 2-2v-5.764c0-.31-.072-.617-.211-.894l-.618-1.236a1.998 1.998 0 0 0-.807-.848L19.147 4.58A2 2 0 0 0 17.192 3H6.808ZM20 13.5h-3a1 1 0 1 0 0 2h3V19h-2v-2H6v2H4v-3.5h3a1 1 0 1 0 0-2H4v-.264L4.618 12h14.764L20 13.236v.264ZM18.263 10l-1.071-5H6.808l-1.071 5h12.526Z"/></symbol><symbol fill="currentColor" viewBox="0 0 24 24" id="card"><path fill-rule="evenodd" clip-rule="evenodd" d="M17.2 6H6.8c-.873 0-1.408.002-1.808.034a2.563 2.563 0 0 0-.367.05.603.603 0 0 0-.063.019l-.016.006a1 1 0 0 0-.437.437s-.003.005-.006.016a.603.603 0 0 0-.018.063 2.563 2.563 0 0 0-.05.367c-.022.26-.03.578-.033 1.008h15.996c-.003-.43-.011-.747-.032-1.008a2.576 2.576 0 0 0-.05-.367.597.597 0 0 0-.019-.063l-.006-.016a1 1 0 0 0-.437-.437s-.005-.003-.016-.006a.597.597 0 0 0-.063-.018 2.564 2.564 0 0 0-.367-.05C18.608 6.001 18.073 6 17.2 6ZM2 15.2c0 1.68 0 2.52.327 3.162a3 3 0 0 0 1.311 1.311C4.28 20 5.12 20 6.8 20h10.4c1.68 0 2.52 0 3.162-.327a3 3 0 0 0 1.311-1.311C22 17.72 22 16.88 22 15.2V8h-.002c-.008-1.165-.055-1.831-.325-2.362a3 3 0 0 0-1.311-1.311C19.72 4 18.88 4 17.2 4H6.8c-1.68 0-2.52 0-3.162.327a3 3 0 0 0-1.311 1.311c-.27.53-.317 1.197-.325 2.362H2v7.2Zm18 0V10H4v5.2c0 .873.002 1.408.034 1.808.015.186.035.299.05.367a.597.597 0 0 0 .019.063l.006.016a1 1 0 0 0 .453.443c.01.004.03.01.063.018.068.016.181.036.367.05.4.033.935.035 1.808.035h10.4c.873 0 1.408-.002 1.808-.034.186-.015.299-.035.367-.05a.59.59 0 0 0 .079-.025 1 1 0 0 0 .437-.437s.003-.005.006-.016a.59.59 0 0 0 .018-.063c.016-.069.036-.181.05-.367.033-.4.035-.935.035-1.808ZM10 12H6v2h4v-2Z"/></symbol><symbol fill="currentColor" viewBox="0 0 24 24" id="cart"><path fill-rule="evenodd" clip-rule="evenodd" d="M0 2h2.5a1 1 0 0 1 .8.4L4.5 4h15.06a3 3 0 0 1 2.942 3.588l-1.04 5.196A4 4 0 0 1 17.542 16H6a1 1 0 1 0 0 2h15v2h-2a2 2 0 1 1-4 0h-4a2 2 0 1 1-4 0H6a3 3 0 0 1-.338-5.981L3.093 5.458 2 4H0V2Zm5.344 4 2.4 8h9.797a2 2 0 0 0 1.96-1.608l1.04-5.196A1 1 0 0 0 19.561 6H5.343Z"/></symbol><symbol fill="currentColor" viewBox="0 0 24 24" id="chat"><path fill-rule="evenodd" clip-rule="evenodd" d="M3 6a3 3 0 0 1 3-3h12a3 3 0 0 1 3 3v10.316a3 3 0 0 1-3 3h-5.665l-3.288 2.482A1 1 0 0 1 7.444 21v-1.684H6a3 3 0 0 1-3-3V6Zm3-1a1 1 0 0 0-1 1v10.316a1 1 0 0 0 1 1h2.444a1 1 0 0 1 1 1v.676l1.954-1.474a1 1 0 0 1 .602-.202h6a1 1 0 0 0 1-1V6a1 1 0 0 0-1-1H6Z"/></symbol><symbol fill="currentColor" viewBox="0 0 24 24" id="checkmark"><path fill-rule="evenodd" clip-rule="evenodd" d="m20.207 7.207-10.5 10.5a1 1 0 0 1-1.414 0l-4.5-4.5 1.414-1.414L9 15.586l9.793-9.793 1.414 1.414Z"/></symbol><symbol fill="currentColor" viewBox="0 0 24 24" id="chevron-down"><path fill-rule="evenodd" clip-rule="evenodd" d="M12 14.586 5.207 7.793 3.793 9.207l7.5 7.5a1 1 0 0 0 1.414 0l7.5-7.5-1.414-1.414L12 14.586Z"/></symbol><symbol fill="currentColor" viewBox="0 0 24 24" id="chevron-left"><path fill-rule="evenodd" clip-rule="evenodd" d="m9.414 12 6.793-6.793-1.414-1.414-7.5 7.5a1 1 0 0 0 0 1.414l7.5 7.5 1.414-1.414L9.414 12Z"/></symbol><symbol fill="currentColor" viewBox="0 0 24 24" id="chevron-right"><path fill-rule="evenodd" clip-rule="evenodd" d="m14.586 12-6.793 6.793 1.414 1.414 7.5-7.5a1 1 0 0 0 0-1.414l-7.5-7.5-1.414 1.414L14.586 12Z"/></symbol><symbol fill="currentColor" viewBox="0 0 24 24" id="chevron-up"><path fill-rule="evenodd" clip-rule="evenodd" d="M12 7a1 1 0 0 1 .707.293l7.5 7.5-1.414 1.414L12 9.414l-6.793 6.793-1.414-1.414 7.5-7.5A1 1 0 0 1 12 7Z"/></symbol><symbol fill="currentColor" viewBox="0 0 24 24" id="clear"><path d="M7.793 9.207 10.586 12l-2.793 2.793 1.414 1.414L12 13.414l2.793 2.793 1.414-1.414L13.414 12l2.793-2.793-1.414-1.414L12 10.586 9.207 7.793 7.793 9.207Z"/><path fill-rule="evenodd" clip-rule="evenodd" d="M22 12c0 5.523-4.477 10-10 10S2 17.523 2 12 6.477 2 12 2s10 4.477 10 10Zm-2 0a8 8 0 1 1-16 0 8 8 0 0 1 16 0Z"/></symbol><symbol fill="currentColor" viewBox="0 0 24 24" id="clock"><path d="M13 12V7h-2v7h6v-2h-4Z"/><path fill-rule="evenodd" clip-rule="evenodd" d="M22 12c0 5.523-4.477 10-10 10S2 17.523 2 12 6.477 2 12 2s10 4.477 10 10Zm-2 0a8 8 0 1 1-16 0 8 8 0 0 1 16 0Z"/></symbol><symbol fill="currentColor" viewBox="0 0 24 24" id="close"><path fill-rule="evenodd" clip-rule="evenodd" d="M10.586 12 3.293 4.707l1.414-1.414L12 10.586l7.293-7.293 1.414 1.414L13.414 12l7.293 7.293-1.414 1.414L12 13.414l-7.293 7.293-1.414-1.414L10.586 12Z"/></symbol><symbol fill="currentColor" viewBox="0 0 24 24" id="direction-horizontal"><path d="m8.293 2.293-4 4a1 1 0 0 0 0 1.414l4 4 1.414-1.414L7.414 8H19V6H7.414l2.293-2.293-1.414-1.414ZM14.293 13.707 16.586 16H5v2h11.586l-2.293 2.293 1.414 1.414 4-4a1 1 0 0 0 0-1.414l-4-4-1.414 1.414Z"/></symbol><symbol fill="currentColor" viewBox="0 0 24 24" id="direction-vertical"><path d="m21.707 8.293-4-4a1 1 0 0 0-1.414 0l-4 4 1.414 1.414L16 7.414V19h2V7.414l2.293 2.293 1.414-1.414ZM10.293 14.293 8 16.586V5H6v11.586l-2.293-2.293-1.414 1.414 4 4a1 1 0 0 0 1.414 0l4-4-1.414-1.414Z"/></symbol><symbol fill="currentColor" viewBox="0 0 24 24" id="erase"><path d="M9.793 9.207 12.586 12l-2.793 2.793 1.414 1.414L14 13.414l2.793 2.793 1.414-1.414L15.414 12l2.793-2.793-1.414-1.414L14 10.586l-2.793-2.793-1.414 1.414Z"/><path fill-rule="evenodd" clip-rule="evenodd" d="M9 3a1 1 0 0 0-.707.293l-8 8a1 1 0 0 0 0 1.414l8 8A1 1 0 0 0 9 21h9a4 4 0 0 0 4-4V7a4 4 0 0 0-4-4H9Zm-6.586 9 7-7H18a2 2 0 0 1 2 2v10a2 2 0 0 1-2 2H9.414l-7-7Z"/></symbol><symbol fill="currentColor" viewBox="0 0 24 24" id="eye"><path fill-rule="evenodd" clip-rule="evenodd" d="M15 12a3 3 0 1 1-6 0 3 3 0 0 1 6 0Zm-2 0a1 1 0 1 1-2 0 1 1 0 0 1 2 0Z"/><path fill-rule="evenodd" clip-rule="evenodd" d="M22 12c0 1.314-4.686 7-10 7S2 13.314 2 12s4.686-7 10-7 10 5.686 10 7Zm-1.957-.32s-.001.007-.006.02l.006-.02Zm-.475-.151c.133.183.236.341.313.471-.077.13-.18.288-.313.471a12.424 12.424 0 0 1-1.883 2.008C16.021 15.916 13.973 17 12 17c-1.973 0-4.021-1.084-5.685-2.52a12.424 12.424 0 0 1-1.883-2.009A6.153 6.153 0 0 1 4.12 12c.077-.13.18-.288.313-.471A12.425 12.425 0 0 1 6.315 9.52C7.979 8.084 10.027 7 12 7c1.973 0 4.021 1.084 5.685 2.52.81.7 1.456 1.422 1.883 2.009Zm-15.611.152s.003.006.006.019c-.005-.013-.006-.02-.006-.02Zm0 .639s.001-.007.006-.02l-.006.02Zm16.08-.02c.005.013.006.02.006.02l-.006-.02Z"/></symbol><symbol fill="currentColor" viewBox="0 0 24 24" id="eye-closed"><path fill-rule="evenodd" clip-rule="evenodd" d="m5.887 16.699-1.594 1.594 1.414 1.414L7.614 17.8C8.956 18.517 10.451 19 12 19c5.314 0 10-5.686 10-7 0-.757-1.554-2.963-3.887-4.699l1.594-1.594-1.414-1.414L16.386 6.2C15.044 5.483 13.549 5 12 5 6.686 5 2 10.686 2 12c0 .757 1.554 2.963 3.887 4.699Zm1.432-1.432c-.347-.246-.683-.51-1.004-.788a12.424 12.424 0 0 1-1.883-2.008A6.153 6.153 0 0 1 4.12 12c.077-.13.18-.288.313-.471A12.425 12.425 0 0 1 6.315 9.52C7.979 8.084 10.027 7 12 7c.965 0 1.947.259 2.894.692L7.32 15.267Zm1.787 1.041c.947.433 1.93.692 2.894.692 1.973 0 4.021-1.084 5.685-2.52a12.424 12.424 0 0 0 1.883-2.009c.133-.183.236-.341.313-.471a6.165 6.165 0 0 0-.313-.471 12.426 12.426 0 0 0-1.883-2.008 13.385 13.385 0 0 0-1.004-.788l-7.575 7.575Zm10.937-4.627-.006.019.006-.02Zm-16.086 0s.003.006.006.019c-.005-.013-.006-.02-.006-.02Zm0 .639s.001-.007.006-.02l-.006.02Zm16.08-.02c.005.013.006.02.006.02l-.006-.02Z"/></symbol><symbol fill="currentColor" viewBox="0 0 24 24" id="filter"><path fill-rule="evenodd" clip-rule="evenodd" d="M7 11a4.002 4.002 0 0 0 3.874-3H21V6H10.874A4.002 4.002 0 0 0 3 7a4 4 0 0 0 4 4Zm0-2a2 2 0 1 0 0-4 2 2 0 0 0 0 4ZM13.126 16A4.002 4.002 0 0 1 21 17a4 4 0 0 1-7.874 1H3v-2h10.126ZM19 17a2 2 0 1 1-4 0 2 2 0 0 1 4 0Z"/></symbol><symbol fill="currentColor" viewBox="0 0 24 24" id="heart"><path fill-rule="evenodd" clip-rule="evenodd" d="M3.912 4.42c2.349-2.042 5.958-1.862 8.078.414l.01.011.01-.01c2.12-2.277 5.73-2.457 8.078-.414 2.369 2.06 2.566 5.605.428 7.901l-7.784 8.36a1 1 0 0 1-1.464 0l-7.784-8.36c-2.138-2.296-1.94-5.84.428-7.901Zm6.614 1.777C9.146 4.715 6.765 4.59 5.224 5.93c-1.52 1.322-1.638 3.566-.276 5.03L12 18.532l7.052-7.574c1.362-1.463 1.244-3.707-.276-5.03-1.54-1.339-3.921-1.214-5.302.268l-.742.797a1 1 0 0 1-1.464 0l-.742-.797Z"/></symbol><symbol fill="currentColor" viewBox="0 0 24 24" id="heart-filled"><path d="M11.99 4.834c-2.12-2.276-5.73-2.456-8.078-.413-2.369 2.06-2.566 5.605-.428 7.901l7.784 8.36a1 1 0 0 0 1.464 0l7.784-8.36c2.138-2.296 1.94-5.84-.428-7.901-2.349-2.043-5.958-1.863-8.078.413l-.01.011-.01-.01Z"/></symbol><symbol fill="currentColor" viewBox="0 0 24 24" id="info"><path d="M11 17v-6h2v6h-2ZM13 9V7h-2v2h2Z"/><path fill-rule="evenodd" clip-rule="evenodd" d="M12 22c5.523 0 10-4.477 10-10S17.523 2 12 2 2 6.477 2 12s4.477 10 10 10Zm0-2a8 8 0 1 0 0-16 8 8 0 0 0 0 16Z"/></symbol><symbol fill="currentColor" viewBox="0 0 24 24" id="location"><path fill-rule="evenodd" clip-rule="evenodd" d="M20.707 3.293a1 1 0 0 1 .227 1.064l-6.5 17a1 1 0 0 1-1.92-.193L11.13 12.87l-8.295-1.383a1 1 0 0 1-.193-1.92l17-6.5a1 1 0 0 1 1.064.227Zm-13.91 6.826 5.367.895a1 1 0 0 1 .822.822l.895 5.367 4.386-11.47-11.47 4.386Z"/></symbol><symbol fill="currentColor" viewBox="0 0 24 24" id="lock"><path d="M13 18v-3h-2v3h2Z"/><path fill-rule="evenodd" clip-rule="evenodd" d="M7 7v4H6a3 3 0 0 0-3 3v5a3 3 0 0 0 3 3h12a3 3 0 0 0 3-3v-5a3 3 0 0 0-3-3h-1V7A5 5 0 0 0 7 7Zm8 4V7a3 3 0 1 0-6 0v4h6Zm-9 2h12a1 1 0 0 1 1 1v5a1 1 0 0 1-1 1H6a1 1 0 0 1-1-1v-5a1 1 0 0 1 1-1Z"/></symbol><symbol fill="currentColor" viewBox="0 0 24 24" id="logo"><path fill-rule="evenodd" clip-rule="evenodd" d="M7.444 7.556a1 1 0 0 1 1-1h4.623c1.817 0 3.489 1.339 3.489 3.222 0 .89-.374 1.659-.96 2.222.586.563.96 1.332.96 2.222 0 1.883-1.672 3.222-3.49 3.222H8.445a1 1 0 0 1-1-1V7.556Zm2 5.444v2.444h3.623c.931 0 1.489-.65 1.489-1.222 0-.571-.557-1.222-1.49-1.222H9.445Zm3.623-2c.931 0 1.489-.65 1.489-1.222s-.557-1.222-1.49-1.222H9.445V11h3.623Z"/><path fill-rule="evenodd" clip-rule="evenodd" d="M5.778 5A.778.778 0 0 0 5 5.778v12.444c0 .43.348.778.778.778h12.444c.43 0 .778-.348.778-.778V5.778A.778.778 0 0 0 18.222 5H5.778ZM3 5.778A2.778 2.778 0 0 1 5.778 3h12.444A2.778 2.778 0 0 1 21 5.778v12.444A2.778 2.778 0 0 1 18.222 21H5.778A2.778 2.778 0 0 1 3 18.222V5.778Z"/></symbol><symbol fill="currentColor" viewBox="0 0 24 24" id="logout"><path fill-rule="evenodd" clip-rule="evenodd" d="m17.707 7.293 4 4a1 1 0 0 1 0 1.414l-4 4-1.414-1.414L18.586 13H7v-2h11.586l-2.293-2.293 1.414-1.414Z"/><path fill-rule="evenodd" clip-rule="evenodd" d="M12 4a8 8 0 1 0 3.555 15.169l.89 1.791A9.963 9.963 0 0 1 12 22C6.477 22 2 17.523 2 12S6.477 2 12 2c1.595 0 3.105.374 4.445 1.04l-.89 1.791A7.963 7.963 0 0 0 12 4Z"/></symbol><symbol fill="currentColor" viewBox="0 0 24 24" id="memo"><path d="M7 17h4v-4H7v4Zm6 0h4v-4h-4v4Zm-6-6h4V7H7v4Zm6 0h4V7h-4v4ZM5 21c-.55 0-1.02-.196-1.413-.587A1.926 1.926 0 0 1 3 19V5c0-.55.196-1.02.587-1.413A1.926 1.926 0 0 1 5 3h14c.55 0 1.02.196 1.413.587C20.803 3.98 21 4.45 21 5v14c0 .55-.196 1.02-.587 1.413A1.926 1.926 0 0 1 19 21H5Zm0-2h14V5H5v14Z"/></symbol><symbol fill="currentColor" viewBox="0 0 24 24" id="micro"><path fill-rule="evenodd" clip-rule="evenodd" d="M9 5a3 3 0 1 1 6 0v6a3 3 0 1 1-6 0V5Zm4 0v6a1 1 0 1 1-2 0V5a1 1 0 1 1 2 0Z"/><path d="M6 9v4.5a4 4 0 0 0 4 4h1V22h2v-4.5h1a4 4 0 0 0 4-4V9h-2v4.5a2 2 0 0 1-2 2h-4a2 2 0 0 1-2-2V9H6Z"/></symbol><symbol fill="currentColor" viewBox="0 0 24 24" id="minus"><path fill-rule="evenodd" clip-rule="evenodd" d="M21 13H3v-2h18v2Z"/></symbol><symbol fill="currentColor" viewBox="0 0 24 24" id="more"><path d="M14 4a2 2 0 1 1-4 0 2 2 0 0 1 4 0ZM14 12a2 2 0 1 1-4 0 2 2 0 0 1 4 0ZM12 22a2 2 0 1 0 0-4 2 2 0 0 0 0 4Z"/></symbol><symbol fill="currentColor" viewBox="0 0 24 24" id="pin"><path fill-rule="evenodd" clip-rule="evenodd" d="M12 15a4 4 0 1 0 0-8 4 4 0 0 0 0 8Zm2-4a2 2 0 1 1-4 0 2 2 0 0 1 4 0Z"/><path fill-rule="evenodd" clip-rule="evenodd" d="M21 11c0 4.97-6 11.5-9 11.5S3 15.97 3 11a9 9 0 0 1 18 0Zm-2 0c0 1.799-1.157 4.225-2.913 6.335-.846 1.017-1.75 1.86-2.563 2.43-.882.617-1.4.735-1.524.735-.124 0-.642-.117-1.524-.736-.813-.57-1.717-1.412-2.564-2.43C6.157 15.226 5 12.8 5 11a7 7 0 0 1 14 0Z"/></symbol><symbol fill="currentColor" viewBox="0 0 24 24" id="plus"><path fill-rule="evenodd" clip-rule="evenodd" d="M11 11V3h2v8h8v2h-8v8h-2v-8H3v-2h8Z"/></symbol><symbol fill="currentColor" viewBox="0 0 24 24" id="reload"><path d="M5 12.02a7 7 0 0 1 12.746-4H14v2h6a1 1 0 0 0 1-1v-6h-2v3.343a9 9 0 1 0 2 5.657h-2a7 7 0 1 1-14 0Z"/></symbol><symbol fill="currentColor" viewBox="0 0 24 24" id="sale"><path fill-rule="evenodd" clip-rule="evenodd" d="M7 11a4 4 0 1 0 0-8 4 4 0 0 0 0 8Zm0-2a2 2 0 1 0 0-4 2 2 0 0 0 0 4Z"/><path d="m4.293 18.293 14-14 1.414 1.414-14 14-1.414-1.414Z"/><path fill-rule="evenodd" clip-rule="evenodd" d="M21 17a4 4 0 1 1-8 0 4 4 0 0 1 8 0Zm-2 0a2 2 0 1 1-4 0 2 2 0 0 1 4 0Z"/></symbol><symbol fill="currentColor" viewBox="0 0 24 24" id="search"><path fill-rule="evenodd" clip-rule="evenodd" d="M15.906 17.32a8 8 0 1 1 1.414-1.414l4.387 4.387-1.414 1.414-4.387-4.387ZM17 11a6 6 0 1 1-12 0 6 6 0 0 1 12 0Z"/></symbol><symbol fill="currentColor" viewBox="0 0 24 24" id="send"><path fill-rule="evenodd" clip-rule="evenodd" d="M20.707 3.293a1 1 0 0 1 .242 1.023l-5.667 17a1 1 0 0 1-1.88.048l-3.028-7.738-7.738-3.028a1 1 0 0 1 .048-1.88l17-5.667a1 1 0 0 1 1.023.242Zm-8.392 9.806 1.943 4.965 3.454-10.361-5.397 5.396Zm3.982-6.81L5.938 9.741l4.964 1.943 5.396-5.397Z"/></symbol><symbol fill="currentColor" viewBox="0 0 24 24" id="settings"><path fill-rule="evenodd" clip-rule="evenodd" d="M16 12a4 4 0 1 1-8 0 4 4 0 0 1 8 0Zm-2 0a2 2 0 1 1-4 0 2 2 0 0 1 4 0Z"/><path fill-rule="evenodd" clip-rule="evenodd" d="M9.985 3.156a2.758 2.758 0 0 1 4.03 0l.287.307c.543.581 1.312.9 2.107.873l.42-.015a2.758 2.758 0 0 1 2.85 2.85l-.015.42a2.757 2.757 0 0 0 .873 2.107l.307.287a2.757 2.757 0 0 1 0 4.03l-.307.287a2.757 2.757 0 0 0-.873 2.107l.014.42a2.757 2.757 0 0 1-2.849 2.85l-.42-.015a2.758 2.758 0 0 0-2.107.873l-.287.308a2.758 2.758 0 0 1-4.03 0l-.287-.308a2.758 2.758 0 0 0-2.107-.873l-.42.014a2.757 2.757 0 0 1-2.85-2.849l.015-.42a2.758 2.758 0 0 0-.873-2.107l-.307-.287a2.757 2.757 0 0 1 0-4.03l.307-.287c.581-.543.9-1.312.873-2.107l-.015-.42a2.758 2.758 0 0 1 2.85-2.85l.42.015a2.758 2.758 0 0 0 2.107-.873l.287-.307Zm2.568 1.365.287.307a4.758 4.758 0 0 0 3.637 1.507l.42-.015a.757.757 0 0 1 .783.783l-.015.42a4.758 4.758 0 0 0 1.507 3.637l.307.287c.32.299.32.807 0 1.106l-.307.287a4.758 4.758 0 0 0-1.507 3.637l.015.42a.757.757 0 0 1-.783.783l-.42-.014a4.758 4.758 0 0 0-3.637 1.506l-.287.307c-.299.32-.807.32-1.106 0l-.287-.307a4.758 4.758 0 0 0-3.637-1.506l-.42.014a.758.758 0 0 1-.783-.783l.015-.42a4.757 4.757 0 0 0-1.507-3.636l-.307-.288a.757.757 0 0 1 0-1.106l.307-.287a4.758 4.758 0 0 0 1.507-3.637l-.015-.42a.758.758 0 0 1 .783-.783l.42.015a4.757 4.757 0 0 0 3.636-1.507l.288-.307c.299-.32.807-.32 1.106 0Z"/></symbol><symbol fill="currentColor" viewBox="0 0 24 24" id="share"><path d="M12.707 3.293a1 1 0 0 0-1.414 0l-5 5 1.414 1.414L11 6.414V18h2V6.414l3.293 3.293 1.414-1.414-5-5Z"/><path d="M3 12v9a1 1 0 0 0 1 1h16a1 1 0 0 0 1-1v-9h-2v8H5v-8H3Z"/></symbol><symbol fill="currentColor" viewBox="0 0 24 24" id="star"><path fill-rule="evenodd" clip-rule="evenodd" d="M12 2a1 1 0 0 1 .894.553l2.77 5.537 5.988.922a1 1 0 0 1 .517 1.731l-4.562 4.106 1.367 5.926a1 1 0 0 1-1.478 1.089L12 18.658l-5.496 3.206a1 1 0 0 1-1.478-1.089l1.367-5.926-4.562-4.106a1 1 0 0 1 .517-1.731l5.989-.922 2.769-5.537A1 1 0 0 1 12 2Zm0 3.236L9.894 9.447a1 1 0 0 1-.742.541l-4.415.68 3.432 3.089a1 1 0 0 1 .305.968l-.98 4.245 4.002-2.334a1 1 0 0 1 1.008 0l4.001 2.334-.98-4.245a1 1 0 0 1 .306-.968l3.432-3.09-4.415-.679a1 1 0 0 1-.742-.54L12 5.235Z"/></symbol><symbol fill="currentColor" viewBox="0 0 24 24" id="star-filled"><path d="M12.894 2.553a1 1 0 0 0-1.788 0L8.336 8.09l-5.988.922a1 1 0 0 0-.517 1.731l4.562 4.106-1.367 5.926a1 1 0 0 0 1.478 1.089L12 18.658l5.496 3.206a1 1 0 0 0 1.478-1.089l-1.367-5.926 4.562-4.106a1 1 0 0 0-.517-1.731l-5.989-.922-2.769-5.537Z"/></symbol><symbol fill="currentColor" viewBox="0 0 24 24" id="subsctract"><path d="M7 13h10v-2H7v2Z"/><path fill-rule="evenodd" clip-rule="evenodd" d="M22 12c0 5.523-4.477 10-10 10S2 17.523 2 12 6.477 2 12 2s10 4.477 10 10Zm-2 0a8 8 0 1 1-16 0 8 8 0 0 1 16 0Z"/></symbol><symbol fill="currentColor" viewBox="0 0 24 24" id="trash"><path fill-rule="evenodd" clip-rule="evenodd" d="M8.051 2.684A1 1 0 0 1 9 2h6a1 1 0 0 1 .949.684L16.72 5H20v2H4V5h3.28l.771-2.316ZM14.28 4l.334 1H9.387l.334-1h4.558Z"/><path d="M5 9v12a1 1 0 0 0 1 1h12a1 1 0 0 0 1-1V9h-2v11H7V9H5Z"/><path d="M9 18V9h2v9H9ZM13 9v9h2V9h-2Z"/></symbol><symbol fill="currentColor" viewBox="0 0 24 24" id="unlock"><path d="M13 18v-3h-2v3h2Z"/><path fill-rule="evenodd" clip-rule="evenodd" d="M9 11V7a3 3 0 1 1 6 0h2A5 5 0 0 0 7 7v4H6a3 3 0 0 0-3 3v5a3 3 0 0 0 3 3h12a3 3 0 0 0 3-3v-5a3 3 0 0 0-3-3H9Zm-3 2h12a1 1 0 0 1 1 1v5a1 1 0 0 1-1 1H6a1 1 0 0 1-1-1v-5a1 1 0 0 1 1-1Z"/></symbol><symbol fill="currentColor" viewBox="0 0 24 24" id="user"><path fill-rule="evenodd" clip-rule="evenodd" d="M17 7A5 5 0 1 1 7 7a5 5 0 0 1 10 0Zm-2 0a3 3 0 1 1-6 0 3 3 0 0 1 6 0Z"/><path d="M4.5 22h1v-.008l.001-.05c.002-.048.005-.122.011-.219a9.44 9.44 0 0 1 .093-.819c.108-.689.321-1.59.738-2.48.416-.886 1.02-1.733 1.9-2.359C9.115 15.445 10.314 15 12 15c1.686 0 2.886.446 3.756 1.065.88.626 1.485 1.473 1.901 2.36.417.889.63 1.79.738 2.48a9.461 9.461 0 0 1 .104 1.036v.051l.001.009 1-.001 1-.001V21.962l-.002-.083a11.425 11.425 0 0 0-.127-1.283 11.31 11.31 0 0 0-.903-3.02c-.522-1.114-1.323-2.267-2.552-3.141C15.676 13.555 14.064 13 12 13c-2.064 0-3.677.554-4.915 1.435-1.23.874-2.031 2.027-2.553 3.14a11.31 11.31 0 0 0-.903 3.02 11.445 11.445 0 0 0-.127 1.284 5.231 5.231 0 0 0-.002.083V21.999l1 .001Z"/></symbol></svg>