<svg width="32" height="32" viewBox="0 0 32 32" fill="none" xmlns="http://www.w3.org/2000/svg">
<path d="M0 8C0 3.58172 3.58172 0 8 0H24C28.4183 0 32 3.58172 32 8V24C32 28.4183 28.4183 32 24 32H8C3.58172 32 0 28.4183 0 24V8Z" fill="#FEEB70"/>
<path d="M17.3339 15.9999H11.5562M17.3339 15.9999C19.0522 15.9999 20.445 14.7562 20.445 13.2221C20.445 11.688 19.0522 10.4443 17.3339 10.4443H11.5562V21.5554H17.3339C19.0522 21.5554 20.445 20.3118 20.445 18.7777C20.445 17.2436 19.0522 15.9999 17.3339 15.9999Z" stroke="#080808" stroke-width="2" stroke-linecap="round" stroke-linejoin="round"/>
<path d="M23.7778 6H8.22222C6.99492 6 6 6.99492 6 8.22222V23.7778C6 25.0051 6.99492 26 8.22222 26H23.7778C25.0051 26 26 25.0051 26 23.7778V8.22222C26 6.99492 25.0051 6 23.7778 6Z" stroke="black" stroke-width="2" stroke-linecap="round" stroke-linejoin="round"/>
</svg>
