<svg width="56" height="56" viewBox="0 0 56 56" fill="none" xmlns="http://www.w3.org/2000/svg">
<circle cx="28" cy="28" r="27.5" fill="#F5F5F5" stroke="#EEEEEE"/>
<path fill-rule="evenodd" clip-rule="evenodd" d="M28 33C30.2091 33 32 31.2091 32 29C32 26.7909 30.2091 25 28 25C25.7909 25 24 26.7909 24 29C24 31.2091 25.7909 33 28 33ZM28 31C29.1046 31 30 30.1046 30 29C30 27.8954 29.1046 27 28 27C26.8954 27 26 27.8954 26 29C26 30.1046 26.8954 31 28 31Z" fill="#212121"/>
<path d="M33 26C33.5523 26 34 25.5523 34 25C34 24.4477 33.5523 24 33 24C32.4477 24 32 24.4477 32 25C32 25.5523 32.4477 26 33 26Z" fill="#212121"/>
<path fill-rule="evenodd" clip-rule="evenodd" d="M25.109 19.546C25 19.7599 25 20.0399 25 20.6V21H25.4C23.1598 21 22.0397 21 21.184 21.436C20.4314 21.8195 19.8195 22.4314 19.436 23.184C19 24.0397 19 25.1598 19 27.4V30.6C19 32.8402 19 33.9603 19.436 34.816C19.8195 35.5686 20.4314 36.1805 21.184 36.564C22.0397 37 23.1598 37 25.4 37H30.6C32.8402 37 33.9603 37 34.816 36.564C35.5686 36.1805 36.1805 35.5686 36.564 34.816C37 33.9603 37 32.8402 37 30.6V27.4C37 25.1598 37 24.0397 36.564 23.184C36.1805 22.4314 35.5686 21.8195 34.816 21.436C33.9603 21 32.8402 21 30.6 21H31V20.6C31 20.0399 31 19.7599 30.891 19.546C30.7951 19.3578 30.6422 19.2049 30.454 19.109C30.2401 19 29.9601 19 29.4 19H26.6C26.0399 19 25.7599 19 25.546 19.109C25.3578 19.2049 25.2049 19.3578 25.109 19.546ZM25.4 23H30.6C31.7531 23 32.4977 23.0016 33.0643 23.0479C33.6077 23.0922 33.8091 23.1676 33.908 23.218C34.2843 23.4097 34.5903 23.7157 34.782 24.092C34.8324 24.1909 34.9078 24.3923 34.9521 24.9357C34.9984 25.5023 35 26.2469 35 27.4V30.6C35 31.7531 34.9984 32.4977 34.9521 33.0643C34.9078 33.6077 34.8324 33.8091 34.782 33.908C34.5903 34.2843 34.2843 34.5903 33.908 34.782C33.8091 34.8324 33.6077 34.9078 33.0643 34.9521C32.4977 34.9984 31.7531 35 30.6 35H25.4C24.2469 35 23.5023 34.9984 22.9357 34.9521C22.3923 34.9078 22.1909 34.8324 22.092 34.782C21.7157 34.5903 21.4097 34.2843 21.218 33.908C21.1676 33.8091 21.0922 33.6077 21.0479 33.0643C21.0016 32.4977 21 31.7531 21 30.6V27.4C21 26.2469 21.0016 25.5023 21.0479 24.9357C21.0922 24.3923 21.1676 24.1909 21.218 24.092C21.4097 23.7157 21.7157 23.4097 22.092 23.218C22.1909 23.1676 22.3923 23.0922 22.9357 23.0479C23.5023 23.0016 24.2469 23 25.4 23Z" fill="#212121"/>
</svg>
